<?xml version="1.0" encoding="UTF-8" standalone="no"?>
<!DOCTYPE svg PUBLIC "-//W3C//DTD SVG 1.1//EN"
 "http://www.w3.org/Graphics/SVG/1.1/DTD/svg11.dtd">
<!-- Generated by graphviz version 2.30.1 (20180420.1509)
 -->
<!-- Title: G Pages: 1 -->
<svg width="651pt" height="693pt"
 viewBox="0.00 0.00 651.00 693.00" xmlns="http://www.w3.org/2000/svg" xmlns:xlink="http://www.w3.org/1999/xlink">
<g id="graph0" class="graph" transform="scale(1 1) rotate(0) translate(4 689)">
<title>G</title>
<polygon fill="white" stroke="white" points="-4,5 -4,-689 648,-689 648,5 -4,5"/>
<g id="clust1" class="cluster"><title>cluster_c1</title>
<g id="a_clust1"><a xlink:href="http://openprovenance.org/vargen#updateLibraries" xlink:title="vargen:updateLibraries">
<polygon fill="none" stroke="black" points="8,-8 8,-677 635,-677 635,-8 8,-8"/>
<text text-anchor="middle" x="321.5" y="-15.8" font-family="Times,serif" font-size="14.00">vargen:updateLibraries</text>
</a>
</g>
</g>
<!-- n1 -->
<g id="node1" class="node"><title>n1</title>
<g id="a_node1"><a xlink:href="http://openprovenance.org/var#libList" xlink:title="var:libList">
<ellipse fill="#fffc87" stroke="#808080" cx="414" cy="-383" rx="47.3916" ry="18"/>
<text text-anchor="middle" x="414" y="-379.3" font-family="Times,serif" font-size="14.00">var:libList</text>
</a>
</g>
</g>
<!-- ann1 -->
<g id="node2" class="node"><title>ann1</title>
<polygon fill="none" stroke="gray" points="620.5,-310.5 489.5,-310.5 489.5,-263.5 626.5,-263.5 626.5,-304.5 620.5,-310.5"/>
<polyline fill="none" stroke="gray" points="620.5,-310.5 620.5,-304.5 "/>
<polyline fill="none" stroke="gray" points="626.5,-304.5 620.5,-304.5 "/>
<g id="a_node2_0"><a xlink:href="http://www.w3.org/ns/prov#type" xlink:title="&lt;TABLE&gt;">
<text text-anchor="start" x="500" y="-296.5" font-family="Times,serif" font-size="10.00">prov:type</text>
</a>
</g>
<g id="a_node2_1"><a xlink:href="http://www.w3.org/ns/prov#Plan" xlink:title="&lt;TABLE&gt;">
<text text-anchor="start" x="554" y="-296.5" font-family="Times,serif" font-size="10.00">prov:Plan</text>
</a>
</g>
<g id="a_node2_2"><a xlink:href="http://www.w3.org/ns/prov#value" xlink:title="&lt;TABLE&gt;">
<text text-anchor="start" x="500" y="-284" font-family="Times,serif" font-size="10.00">prov:value</text>
</a>
</g>
<g id="a_node2_3"><a xlink:href="http://openprovenance.org/var#liblistvalue" xlink:title="&lt;TABLE&gt;">
<text text-anchor="start" x="554" y="-284" font-family="Times,serif" font-size="10.00">var:liblistvalue</text>
</a>
</g>
<g id="a_node2_4"><a xlink:href="http://project-dare.eu/ns#version" xlink:title="&lt;TABLE&gt;">
<text text-anchor="start" x="500" y="-272" font-family="Times,serif" font-size="10.00">dare:version</text>
</a>
</g>
<g id="a_node2_5"><a xlink:href="http://openprovenance.org/var#version" xlink:title="&lt;TABLE&gt;">
<text text-anchor="start" x="554" y="-272" font-family="Times,serif" font-size="10.00">var:version</text>
</a>
</g>
</g>
<!-- ann1&#45;&gt;n1 -->
<g id="edge1" class="edge"><title>ann1&#45;&gt;n1</title>
<path fill="none" stroke="gray" stroke-dasharray="5,2" d="M523.508,-310.515C496.716,-328.005 460.311,-351.77 436.98,-366.999"/>
</g>
<!-- n2 -->
<g id="node3" class="node"><title>n2</title>
<g id="a_node3"><a xlink:href="http://openprovenance.org/var#updateLibraries" xlink:title="var:updateLibraries">
<polygon fill="#9fb1fc" stroke="#0000ff" points="471,-305 349,-305 349,-269 471,-269 471,-305"/>
<text text-anchor="middle" x="410" y="-283.3" font-family="Times,serif" font-size="14.00">var:updateLibraries</text>
</a>
</g>
</g>
<!-- n2&#45;&gt;n1 -->
<g id="edge8" class="edge"><title>n2&#45;&gt;n1</title>
<path fill="none" stroke="#8b0000" d="M412.292,-305.375C413.347,-314.225 414.478,-325.167 415,-335 415.282,-340.326 415.076,-341.667 415,-347 414.964,-349.553 414.912,-352.21 414.852,-354.869"/>
<polygon fill="#8b0000" stroke="#8b0000" points="411.352,-354.823 414.586,-364.912 418.349,-355.008 411.352,-354.823"/>
<text text-anchor="middle" x="424.5" y="-338.5" font-family="Times,serif" font-size="10.00" fill="red">used</text>
</g>
<!-- b1 -->
<g id="node16" class="node"><title>b1</title>
<ellipse fill="gray" stroke="gray" cx="347" cy="-383" rx="1.8" ry="1.8"/>
</g>
<!-- n2&#45;&gt;b1 -->
<g id="edge9" class="edge"><title>n2&#45;&gt;b1</title>
<path fill="none" stroke="#fed37f" d="M362.055,-305.194C349.025,-312.323 336.465,-322.038 329,-335 326.338,-339.622 327.745,-341.816 329,-347 332.601,-361.876 343.682,-377.516 346.395,-381.193"/>
<text text-anchor="middle" x="370" y="-338.5" font-family="Times,serif" font-size="10.00">wasAssociatedWith</text>
</g>
<!-- ann2 -->
<g id="node4" class="node"><title>ann2</title>
<polygon fill="none" stroke="gray" points="544,-208.5 346,-208.5 346,-161.5 550,-161.5 550,-202.5 544,-208.5"/>
<polyline fill="none" stroke="gray" points="544,-208.5 544,-202.5 "/>
<polyline fill="none" stroke="gray" points="550,-202.5 544,-202.5 "/>
<g id="a_node4_6"><a xlink:href="http://www.w3.org/ns/prov#type" xlink:title="&lt;TABLE&gt;">
<text text-anchor="start" x="356" y="-194.5" font-family="Times,serif" font-size="10.00">prov:type</text>
</a>
</g>
<g id="a_node4_7"><a xlink:href="http://openprovenance.org/var#updateMethod" xlink:title="&lt;TABLE&gt;">
<text text-anchor="start" x="420" y="-194.5" font-family="Times,serif" font-size="10.00">var:updateMethod</text>
</a>
</g>
<g id="a_node4_8"><a xlink:href="http://openprovenance.org/tmpl#endTime" xlink:title="&lt;TABLE&gt;">
<text text-anchor="start" x="356" y="-182" font-family="Times,serif" font-size="10.00">tmpl:endTime</text>
</a>
</g>
<g id="a_node4_9"><a xlink:href="http://openprovenance.org/var#updateLibrariesEndTime" xlink:title="&lt;TABLE&gt;">
<text text-anchor="start" x="420" y="-182" font-family="Times,serif" font-size="10.00">var:updateLibrariesEndTime</text>
</a>
</g>
<g id="a_node4_10"><a xlink:href="http://openprovenance.org/tmpl#startTime" xlink:title="&lt;TABLE&gt;">
<text text-anchor="start" x="356" y="-170" font-family="Times,serif" font-size="10.00">tmpl:startTime</text>
</a>
</g>
<g id="a_node4_11"><a xlink:href="http://openprovenance.org/var#updateLibrariesStartTime" xlink:title="&lt;TABLE&gt;">
<text text-anchor="start" x="420" y="-170" font-family="Times,serif" font-size="10.00">var:updateLibrariesStartTime</text>
</a>
</g>
</g>
<!-- ann2&#45;&gt;n2 -->
<g id="edge2" class="edge"><title>ann2&#45;&gt;n2</title>
<path fill="none" stroke="gray" stroke-dasharray="5,2" d="M448.407,-208.745C447.933,-218.334 446.516,-229.461 443,-239 439.001,-249.852 431.85,-260.519 425.225,-268.941"/>
</g>
<!-- n3 -->
<g id="node5" class="node"><title>n3</title>
<g id="a_node5"><a xlink:href="http://openprovenance.org/var#user" xlink:title="var:user">
<polygon fill="#fed37f" stroke="black" points="525.406,-656.562 477,-669 428.594,-656.562 428.64,-636.438 525.36,-636.438 525.406,-656.562"/>
<text text-anchor="middle" x="477" y="-647.3" font-family="Times,serif" font-size="14.00">var:user</text>
</a>
</g>
</g>
<!-- ann3 -->
<g id="node6" class="node"><title>ann3</title>
<polygon fill="none" stroke="gray" points="588.5,-594.5 451.5,-594.5 451.5,-523.5 594.5,-523.5 594.5,-588.5 588.5,-594.5"/>
<polyline fill="none" stroke="gray" points="588.5,-594.5 588.5,-588.5 "/>
<polyline fill="none" stroke="gray" points="594.5,-588.5 588.5,-588.5 "/>
<g id="a_node6_12"><a xlink:href="http://www.w3.org/ns/prov#type" xlink:title="&lt;TABLE&gt;">
<text text-anchor="start" x="462" y="-580.5" font-family="Times,serif" font-size="10.00">prov:type</text>
</a>
</g>
<g id="a_node6_13"><a xlink:href="http://project-dare.eu/ns#Person" xlink:title="&lt;TABLE&gt;">
<text text-anchor="start" x="528" y="-580.5" font-family="Times,serif" font-size="10.00">dare:Person</text>
</a>
</g>
<g id="a_node6_14"><a xlink:href="http://www.w3.org/ns/prov#type" xlink:title="&lt;TABLE&gt;">
<text text-anchor="start" x="462" y="-568" font-family="Times,serif" font-size="10.00">prov:type</text>
</a>
</g>
<g id="a_node6_15"><a xlink:href="http://www.w3.org/ns/prov#Person" xlink:title="&lt;TABLE&gt;">
<text text-anchor="start" x="528" y="-568" font-family="Times,serif" font-size="10.00">prov:Person</text>
</a>
</g>
<g id="a_node6_16"><a xlink:href="http://project-dare.eu/ns#authMode" xlink:title="&lt;TABLE&gt;">
<text text-anchor="start" x="462" y="-556" font-family="Times,serif" font-size="10.00">dare:authMode</text>
</a>
</g>
<g id="a_node6_17"><a xlink:href="http://openprovenance.org/var#authmode" xlink:title="&lt;TABLE&gt;">
<text text-anchor="start" x="528" y="-556" font-family="Times,serif" font-size="10.00">var:authmode</text>
</a>
</g>
<g id="a_node6_18"><a xlink:href="http://project-dare.eu/ns#group" xlink:title="&lt;TABLE&gt;">
<text text-anchor="start" x="462" y="-544" font-family="Times,serif" font-size="10.00">dare:group</text>
</a>
</g>
<g id="a_node6_19"><a xlink:href="http://openprovenance.org/var#group" xlink:title="&lt;TABLE&gt;">
<text text-anchor="start" x="528" y="-544" font-family="Times,serif" font-size="10.00">var:group</text>
</a>
</g>
<g id="a_node6_20"><a xlink:href="http://www.w3.org/2006/vcard/ns#uid" xlink:title="&lt;TABLE&gt;">
<text text-anchor="start" x="462" y="-532" font-family="Times,serif" font-size="10.00">vcard:uid</text>
</a>
</g>
<g id="a_node6_21"><a xlink:href="http://openprovenance.org/var#name" xlink:title="&lt;TABLE&gt;">
<text text-anchor="start" x="528" y="-532" font-family="Times,serif" font-size="10.00">var:name</text>
</a>
</g>
</g>
<!-- ann3&#45;&gt;n3 -->
<g id="edge3" class="edge"><title>ann3&#45;&gt;n3</title>
<path fill="none" stroke="gray" stroke-dasharray="5,2" d="M505.347,-594.539C497.949,-609.014 489.769,-625.017 484.106,-636.098"/>
</g>
<!-- n4 -->
<g id="node7" class="node"><title>n4</title>
<g id="a_node7"><a xlink:href="http://openprovenance.org/var#updateAgent" xlink:title="var:updateAgent">
<polygon fill="#fed37f" stroke="black" points="517.922,-462.562 432,-475 346.078,-462.562 346.158,-442.438 517.842,-442.438 517.922,-462.562"/>
<text text-anchor="middle" x="432" y="-453.3" font-family="Times,serif" font-size="14.00">var:updateAgent</text>
</a>
</g>
</g>
<!-- b3 -->
<g id="node18" class="node"><title>b3</title>
<ellipse fill="gray" stroke="gray" cx="432" cy="-559" rx="1.8" ry="1.8"/>
</g>
<!-- n4&#45;&gt;b3 -->
<g id="edge13" class="edge"><title>n4&#45;&gt;b3</title>
<path fill="none" stroke="#fed37f" d="M432,-475.419C432,-501.831 432,-549.728 432,-557.05"/>
<text text-anchor="middle" x="468.5" y="-496.5" font-family="Times,serif" font-size="10.00">actedOnBehalfOf</text>
</g>
<!-- ann4 -->
<g id="node8" class="node"><title>ann4</title>
<polygon fill="none" stroke="gray" points="620.5,-401 479.5,-401 479.5,-365 626.5,-365 626.5,-395 620.5,-401"/>
<polyline fill="none" stroke="gray" points="620.5,-401 620.5,-395 "/>
<polyline fill="none" stroke="gray" points="626.5,-395 620.5,-395 "/>
<g id="a_node8_22"><a xlink:href="http://www.w3.org/ns/prov#type" xlink:title="&lt;TABLE&gt;">
<text text-anchor="start" x="490" y="-386.5" font-family="Times,serif" font-size="10.00">prov:type</text>
</a>
</g>
<g id="a_node8_23"><a xlink:href="http://www.w3.org/ns/prov#SoftwareAgent" xlink:title="&lt;TABLE&gt;">
<text text-anchor="start" x="533" y="-386.5" font-family="Times,serif" font-size="10.00">prov:SoftwareAgent</text>
</a>
</g>
<g id="a_node8_24"><a xlink:href="http://www.w3.org/2006/vcard/ns#uid" xlink:title="&lt;TABLE&gt;">
<text text-anchor="start" x="490" y="-374" font-family="Times,serif" font-size="10.00">vcard:uid</text>
</a>
</g>
<g id="a_node8_25"><a xlink:href="http://openprovenance.org/var#name_api" xlink:title="&lt;TABLE&gt;">
<text text-anchor="start" x="533" y="-374" font-family="Times,serif" font-size="10.00">var:name_api</text>
</a>
</g>
</g>
<!-- ann4&#45;&gt;n4 -->
<g id="edge4" class="edge"><title>ann4&#45;&gt;n4</title>
<path fill="none" stroke="gray" stroke-dasharray="5,2" d="M524.325,-401.063C503.08,-413.705 474.515,-430.702 454.812,-442.426"/>
</g>
<!-- n5 -->
<g id="node9" class="node"><title>n5</title>
<g id="a_node9"><a xlink:href="http://openprovenance.org/var#Jupyter" xlink:title="var:Jupyter">
<ellipse fill="#fffc87" stroke="#808080" cx="278" cy="-185" rx="50.0912" ry="18"/>
<text text-anchor="middle" x="278" y="-181.3" font-family="Times,serif" font-size="14.00">var:Jupyter</text>
</a>
</g>
</g>
<!-- b2 -->
<g id="node17" class="node"><title>b2</title>
<ellipse fill="gray" stroke="gray" cx="329" cy="-287" rx="1.8" ry="1.8"/>
</g>
<!-- n5&#45;&gt;b2 -->
<g id="edge11" class="edge"><title>n5&#45;&gt;b2</title>
<path fill="none" stroke="black" d="M274.361,-203.128C272.972,-214.242 273.105,-228.546 280,-239 290.289,-254.6 305.324,-243.269 318,-257 326.182,-265.863 328.467,-281.419 328.911,-285.169"/>
<text text-anchor="middle" x="315" y="-230.5" font-family="Times,serif" font-size="10.00">wasDerivedFrom</text>
</g>
<!-- n5&#45;&gt;n2 -->
<g id="edge15" class="edge"><title>n5&#45;&gt;n2</title>
<path fill="none" stroke="darkgreen" d="M306.406,-199.974C320.105,-207.253 336.46,-216.764 350,-227 363.446,-237.165 376.959,-250.151 387.747,-261.351"/>
<polygon fill="darkgreen" stroke="darkgreen" points="385.336,-263.896 394.747,-268.763 390.426,-259.09 385.336,-263.896"/>
<text text-anchor="middle" x="399" y="-230.5" font-family="Times,serif" font-size="10.00" fill="darkgreen">wasGeneratedBy</text>
</g>
<!-- n8 -->
<g id="node14" class="node"><title>n8</title>
<g id="a_node14"><a xlink:href="http://openprovenance.org/var#libs" xlink:title="var:libs">
<ellipse fill="#fffc87" stroke="#808080" cx="53" cy="-287" rx="37.0935" ry="18"/>
<text text-anchor="middle" x="53" y="-283.3" font-family="Times,serif" font-size="14.00">var:libs</text>
</a>
</g>
</g>
<!-- n5&#45;&gt;n8 -->
<g id="edge16" class="edge"><title>n5&#45;&gt;n8</title>
<path fill="none" stroke="black" d="M242.511,-197.885C205.777,-210.688 147.136,-232.545 99,-257 93.5002,-259.794 87.811,-263.051 82.3875,-266.353"/>
<polygon fill="black" stroke="black" points="80.1978,-263.595 73.5912,-271.878 83.921,-269.523 80.1978,-263.595"/>
<text text-anchor="middle" x="186.5" y="-230.5" font-family="Times,serif" font-size="10.00">hadMember</text>
</g>
<!-- ann5 -->
<g id="node10" class="node"><title>ann5</title>
<polygon fill="none" stroke="gray" points="395.5,-122.5 154.5,-122.5 154.5,-39.5 401.5,-39.5 401.5,-116.5 395.5,-122.5"/>
<polyline fill="none" stroke="gray" points="395.5,-122.5 395.5,-116.5 "/>
<polyline fill="none" stroke="gray" points="401.5,-116.5 395.5,-116.5 "/>
<g id="a_node10_26"><a xlink:href="http://www.w3.org/ns/prov#type" xlink:title="&lt;TABLE&gt;">
<text text-anchor="start" x="165" y="-108.5" font-family="Times,serif" font-size="10.00">prov:type</text>
</a>
</g>
<g id="a_node10_27"><a xlink:href="http://project-dare.eu/ns#Session" xlink:title="&lt;TABLE&gt;">
<text text-anchor="start" x="283" y="-108.5" font-family="Times,serif" font-size="10.00">dare:Session</text>
</a>
</g>
<g id="a_node10_28"><a xlink:href="http://project-dare.eu/ns#ComputationalContext" xlink:title="&lt;TABLE&gt;">
<text text-anchor="start" x="165" y="-96" font-family="Times,serif" font-size="10.00">dare:ComputationalContext</text>
</a>
</g>
<g id="a_node10_29"><a xlink:href="http://openprovenance.org/var#contextId" xlink:title="&lt;TABLE&gt;">
<text text-anchor="start" x="283" y="-96" font-family="Times,serif" font-size="10.00">var:contextId</text>
</a>
</g>
<g id="a_node10_30"><a xlink:href="http://project-dare.eu/ns#computationalInstance" xlink:title="&lt;TABLE&gt;">
<text text-anchor="start" x="165" y="-84" font-family="Times,serif" font-size="10.00">dare:computationalInstance</text>
</a>
</g>
<g id="a_node10_31"><a xlink:href="http://openprovenance.org/var#computationalInstance" xlink:title="&lt;TABLE&gt;">
<text text-anchor="start" x="283" y="-84" font-family="Times,serif" font-size="10.00">var:computationalInstance</text>
</a>
</g>
<g id="a_node10_32"><a xlink:href="http://project-dare.eu/ns#sessionId" xlink:title="&lt;TABLE&gt;">
<text text-anchor="start" x="165" y="-72" font-family="Times,serif" font-size="10.00">dare:sessionId</text>
</a>
</g>
<g id="a_node10_33"><a xlink:href="http://openprovenance.org/var#sessionId" xlink:title="&lt;TABLE&gt;">
<text text-anchor="start" x="283" y="-72" font-family="Times,serif" font-size="10.00">var:sessionId</text>
</a>
</g>
<g id="a_node10_34"><a xlink:href="http://www.w3.org/ns/prov#atLocation" xlink:title="&lt;TABLE&gt;">
<text text-anchor="start" x="165" y="-60" font-family="Times,serif" font-size="10.00">prov:atLocation</text>
</a>
</g>
<g id="a_node10_35"><a xlink:href="http://openprovenance.org/var#accessurl" xlink:title="&lt;TABLE&gt;">
<text text-anchor="start" x="283" y="-60" font-family="Times,serif" font-size="10.00">var:accessurl</text>
</a>
</g>
<g id="a_node10_36"><a xlink:href="http://www.w3.org/ns/prov#generatedAt" xlink:title="&lt;TABLE&gt;">
<text text-anchor="start" x="165" y="-48" font-family="Times,serif" font-size="10.00">prov:generatedAt</text>
</a>
</g>
<g id="a_node10_37"><a xlink:href="http://openprovenance.org/var#generatedAt" xlink:title="&lt;TABLE&gt;">
<text text-anchor="start" x="283" y="-48" font-family="Times,serif" font-size="10.00">var:generatedAt</text>
</a>
</g>
</g>
<!-- ann5&#45;&gt;n5 -->
<g id="edge5" class="edge"><title>ann5&#45;&gt;n5</title>
<path fill="none" stroke="gray" stroke-dasharray="5,2" d="M278,-122.606C278,-138.051 278,-154.823 278,-166.928"/>
</g>
<!-- n6 -->
<g id="node11" class="node"><title>n6</title>
<g id="a_node11"><a xlink:href="http://openprovenance.org/var#JupyterPrev" xlink:title="var:JupyterPrev">
<ellipse fill="#fffc87" stroke="#808080" cx="261" cy="-383" rx="66.0889" ry="18"/>
<text text-anchor="middle" x="261" y="-379.3" font-family="Times,serif" font-size="14.00">var:JupyterPrev</text>
</a>
</g>
</g>
<!-- n7 -->
<g id="node12" class="node"><title>n7</title>
<g id="a_node12"><a xlink:href="http://openprovenance.org/var#lib" xlink:title="var:lib">
<ellipse fill="#fffc87" stroke="#808080" cx="115" cy="-383" rx="33.5952" ry="18"/>
<text text-anchor="middle" x="115" y="-379.3" font-family="Times,serif" font-size="14.00">var:lib</text>
</a>
</g>
</g>
<!-- ann6 -->
<g id="node13" class="node"><title>ann6</title>
<polygon fill="none" stroke="gray" points="303.5,-316.5 108.5,-316.5 108.5,-257.5 309.5,-257.5 309.5,-310.5 303.5,-316.5"/>
<polyline fill="none" stroke="gray" points="303.5,-316.5 303.5,-310.5 "/>
<polyline fill="none" stroke="gray" points="309.5,-310.5 303.5,-310.5 "/>
<g id="a_node13_38"><a xlink:href="http://www.w3.org/ns/prov#type" xlink:title="&lt;TABLE&gt;">
<text text-anchor="start" x="119" y="-302.5" font-family="Times,serif" font-size="10.00">prov:type</text>
</a>
</g>
<g id="a_node13_39"><a xlink:href="http://openprovenance.org/var#libProvType" xlink:title="&lt;TABLE&gt;">
<text text-anchor="start" x="213" y="-302.5" font-family="Times,serif" font-size="10.00">var:libProvType</text>
</a>
</g>
<g id="a_node13_40"><a xlink:href="http://project-dare.eu/ns#installationMode" xlink:title="&lt;TABLE&gt;">
<text text-anchor="start" x="119" y="-290" font-family="Times,serif" font-size="10.00">dare:installationMode</text>
</a>
</g>
<g id="a_node13_41"><a xlink:href="http://openprovenance.org/var#installationMode" xlink:title="&lt;TABLE&gt;">
<text text-anchor="start" x="213" y="-290" font-family="Times,serif" font-size="10.00">var:installationMode</text>
</a>
</g>
<g id="a_node13_42"><a xlink:href="http://project-dare.eu/ns#libname" xlink:title="&lt;TABLE&gt;">
<text text-anchor="start" x="119" y="-278" font-family="Times,serif" font-size="10.00">dare:libname</text>
</a>
</g>
<g id="a_node13_43"><a xlink:href="http://openprovenance.org/var#libname" xlink:title="&lt;TABLE&gt;">
<text text-anchor="start" x="213" y="-278" font-family="Times,serif" font-size="10.00">var:libname</text>
</a>
</g>
<g id="a_node13_44"><a xlink:href="http://project-dare.eu/ns#version" xlink:title="&lt;TABLE&gt;">
<text text-anchor="start" x="119" y="-266" font-family="Times,serif" font-size="10.00">dare:version</text>
</a>
</g>
<g id="a_node13_45"><a xlink:href="http://openprovenance.org/var#libversion" xlink:title="&lt;TABLE&gt;">
<text text-anchor="start" x="213" y="-266" font-family="Times,serif" font-size="10.00">var:libversion</text>
</a>
</g>
</g>
<!-- ann6&#45;&gt;n7 -->
<g id="edge6" class="edge"><title>ann6&#45;&gt;n7</title>
<path fill="none" stroke="gray" stroke-dasharray="5,2" d="M180.286,-316.714C163.765,-333.235 143.672,-353.328 130.178,-366.822"/>
</g>
<!-- n8&#45;&gt;n7 -->
<g id="edge17" class="edge"><title>n8&#45;&gt;n7</title>
<path fill="none" stroke="black" d="M63.7996,-304.374C73.4012,-318.931 87.5821,-340.431 98.5866,-357.115"/>
<polygon fill="black" stroke="black" points="95.8965,-359.393 104.324,-365.814 101.74,-355.539 95.8965,-359.393"/>
<text text-anchor="middle" x="116.5" y="-338.5" font-family="Times,serif" font-size="10.00">hadMember</text>
</g>
<!-- ann7 -->
<g id="node15" class="node"><title>ann7</title>
<polygon fill="none" stroke="gray" points="152,-203 16,-203 16,-167 158,-167 158,-197 152,-203"/>
<polyline fill="none" stroke="gray" points="152,-203 152,-197 "/>
<polyline fill="none" stroke="gray" points="158,-197 152,-197 "/>
<g id="a_node15_46"><a xlink:href="http://www.w3.org/ns/prov#type" xlink:title="&lt;TABLE&gt;">
<text text-anchor="start" x="26" y="-182.5" font-family="Times,serif" font-size="10.00">prov:type</text>
</a>
</g>
<g id="a_node15_47"><a xlink:href="http://project-dare.eu/ns#LibCollection" xlink:title="&lt;TABLE&gt;">
<text text-anchor="start" x="69" y="-182.5" font-family="Times,serif" font-size="10.00">dare:LibCollection</text>
</a>
</g>
</g>
<!-- ann7&#45;&gt;n8 -->
<g id="edge7" class="edge"><title>ann7&#45;&gt;n8</title>
<path fill="none" stroke="gray" stroke-dasharray="5,2" d="M81.0777,-203.419C74.7991,-221.885 64.95,-250.853 58.7412,-269.114"/>
</g>
<!-- b1&#45;&gt;n4 -->
<g id="edge10" class="edge"><title>b1&#45;&gt;n4</title>
<path fill="none" stroke="#fed37f" d="M347.488,-385.006C348.863,-387.777 353,-395.665 358,-401 370.69,-414.541 387.064,-427.098 401.181,-436.784"/>
<polygon fill="#fed37f" stroke="#fed37f" points="399.368,-439.782 409.627,-442.428 403.257,-433.962 399.368,-439.782"/>
</g>
<!-- b2&#45;&gt;n6 -->
<g id="edge12" class="edge"><title>b2&#45;&gt;n6</title>
<path fill="none" stroke="black" d="M328.717,-289.173C327.704,-293.239 323.992,-307.031 318,-317 309.056,-331.879 296.559,-346.582 285.544,-358.23"/>
<polygon fill="black" stroke="black" points="283.025,-355.801 278.573,-365.415 288.048,-360.675 283.025,-355.801"/>
</g>
<!-- b3&#45;&gt;n3 -->
<g id="edge14" class="edge"><title>b3&#45;&gt;n3</title>
<path fill="none" stroke="#fed37f" d="M432.194,-560.896C433.094,-564.96 437.064,-582.026 443,-595 448.097,-606.14 455.026,-617.776 461.3,-627.462"/>
<polygon fill="#fed37f" stroke="#fed37f" points="458.577,-629.687 467.033,-636.07 464.403,-625.807 458.577,-629.687"/>
</g>
</g>
</svg>
