<?xml version="1.0" encoding="UTF-8" standalone="no"?>
<!DOCTYPE svg PUBLIC "-//W3C//DTD SVG 1.1//EN"
 "http://www.w3.org/Graphics/SVG/1.1/DTD/svg11.dtd">
<!-- Generated by graphviz version 2.38.0 (20140413.2041)
 -->
<!-- Title: PROV Pages: 1 -->
<svg width="524pt" height="404pt"
 viewBox="0.00 0.00 524.06 404.00" xmlns="http://www.w3.org/2000/svg" xmlns:xlink="http://www.w3.org/1999/xlink">
<g id="graph0" class="graph" transform="scale(1 1) rotate(0) translate(4 400)">
<title>PROV</title>
<polygon fill="white" stroke="none" points="-4,4 -4,-400 520.059,-400 520.059,4 -4,4"/>
<!-- http://www.cordonbleu.eduMix -->
<g id="node1" class="node"><title>http://www.cordonbleu.eduMix</title>
<g id="a_node1"><a xlink:href="http://www.cordonbleu.eduMix" xlink:title="Mix">
<polygon fill="#9fb1fc" stroke="#0000ff" points="317.497,-252 263.497,-252 263.497,-216 317.497,-216 317.497,-252"/>
<text text-anchor="middle" x="290.497" y="-230.3" font-family="Times New Roman,serif" font-size="14.00">Mix</text>
</a>
</g>
</g>
<!-- http://www.cordonbleu.eduButter -->
<g id="node5" class="node"><title>http://www.cordonbleu.eduButter</title>
<g id="a_node5"><a xlink:href="http://www.cordonbleu.eduButter" xlink:title="Butter">
<ellipse fill="#fffc87" stroke="#808080" cx="32.4971" cy="-306" rx="32.4942" ry="18"/>
<text text-anchor="middle" x="32.4971" y="-302.3" font-family="Times New Roman,serif" font-size="14.00">Butter</text>
</a>
</g>
</g>
<!-- http://www.cordonbleu.eduMix&#45;&gt;http://www.cordonbleu.eduButter -->
<g id="edge3" class="edge"><title>http://www.cordonbleu.eduMix&#45;&gt;http://www.cordonbleu.eduButter</title>
<path fill="none" stroke="black" d="M263.399,-240.222C221.957,-248.519 140.577,-266.045 73.4971,-288 71.2108,-288.748 68.8725,-289.567 66.5287,-290.427"/>
<polygon fill="black" stroke="black" points="65.0406,-287.251 56.9829,-294.13 67.5718,-293.777 65.0406,-287.251"/>
<text text-anchor="middle" x="258.639" y="-252.546" font-family="Times New Roman,serif" font-size="8.00">use</text>
</g>
<!-- http://www.cordonbleu.eduFlour -->
<g id="node6" class="node"><title>http://www.cordonbleu.eduFlour</title>
<g id="a_node6"><a xlink:href="http://www.cordonbleu.eduFlour" xlink:title="Flour">
<ellipse fill="#fffc87" stroke="#808080" cx="390.497" cy="-306" rx="30.5947" ry="18"/>
<text text-anchor="middle" x="390.497" y="-302.3" font-family="Times New Roman,serif" font-size="14.00">Flour</text>
</a>
</g>
</g>
<!-- http://www.cordonbleu.eduMix&#45;&gt;http://www.cordonbleu.eduFlour -->
<g id="edge4" class="edge"><title>http://www.cordonbleu.eduMix&#45;&gt;http://www.cordonbleu.eduFlour</title>
<path fill="none" stroke="black" d="M314.96,-252.124C329.557,-262.342 348.124,-275.339 363.197,-285.89"/>
<polygon fill="black" stroke="black" points="361.412,-288.913 371.612,-291.78 365.426,-283.178 361.412,-288.913"/>
<text text-anchor="middle" x="328.554" y="-243.883" font-family="Times New Roman,serif" font-size="8.00">use</text>
</g>
<!-- http://www.cordonbleu.eduSugar -->
<g id="node7" class="node"><title>http://www.cordonbleu.eduSugar</title>
<g id="a_node7"><a xlink:href="http://www.cordonbleu.eduSugar" xlink:title="Sugar">
<ellipse fill="#fffc87" stroke="#808080" cx="114.497" cy="-306" rx="31.6951" ry="18"/>
<text text-anchor="middle" x="114.497" y="-302.3" font-family="Times New Roman,serif" font-size="14.00">Sugar</text>
</a>
</g>
</g>
<!-- http://www.cordonbleu.eduMix&#45;&gt;http://www.cordonbleu.eduSugar -->
<g id="edge5" class="edge"><title>http://www.cordonbleu.eduMix&#45;&gt;http://www.cordonbleu.eduSugar</title>
<path fill="none" stroke="black" d="M263.308,-245.318C235.785,-255.828 192.048,-272.708 154.497,-288 152.453,-288.832 150.354,-289.697 148.239,-290.574"/>
<polygon fill="black" stroke="black" points="146.856,-287.359 138.987,-294.453 149.562,-293.815 146.856,-287.359"/>
<text text-anchor="middle" x="260.944" y="-258.231" font-family="Times New Roman,serif" font-size="8.00">use</text>
</g>
<!-- http://www.cordonbleu.eduEggs -->
<g id="node10" class="node"><title>http://www.cordonbleu.eduEggs</title>
<g id="a_node10"><a xlink:href="http://www.cordonbleu.eduEggs" xlink:title="Eggs">
<ellipse fill="#fffc87" stroke="#808080" cx="192.497" cy="-306" rx="28.6953" ry="18"/>
<text text-anchor="middle" x="192.497" y="-302.3" font-family="Times New Roman,serif" font-size="14.00">Eggs</text>
</a>
</g>
</g>
<!-- http://www.cordonbleu.eduMix&#45;&gt;http://www.cordonbleu.eduEggs -->
<g id="edge6" class="edge"><title>http://www.cordonbleu.eduMix&#45;&gt;http://www.cordonbleu.eduEggs</title>
<path fill="none" stroke="black" d="M266.524,-252.124C252.123,-262.41 233.781,-275.511 218.958,-286.099"/>
<polygon fill="black" stroke="black" points="216.796,-283.342 210.693,-292.003 220.865,-289.038 216.796,-283.342"/>
<text text-anchor="middle" x="267.971" y="-265.154" font-family="Times New Roman,serif" font-size="8.00">use</text>
</g>
<!-- http://www.cordonbleu.eduHandMixer -->
<g id="node11" class="node"><title>http://www.cordonbleu.eduHandMixer</title>
<g id="a_node11"><a xlink:href="http://www.cordonbleu.eduHandMixer" xlink:title="HandMixer">
<ellipse fill="#fffc87" stroke="#808080" cx="290.497" cy="-306" rx="51.1914" ry="18"/>
<text text-anchor="middle" x="290.497" y="-302.3" font-family="Times New Roman,serif" font-size="14.00">HandMixer</text>
</a>
</g>
</g>
<!-- http://www.cordonbleu.eduMix&#45;&gt;http://www.cordonbleu.eduHandMixer -->
<g id="edge7" class="edge"><title>http://www.cordonbleu.eduMix&#45;&gt;http://www.cordonbleu.eduHandMixer</title>
<path fill="none" stroke="black" d="M290.497,-252.303C290.497,-260.017 290.497,-269.288 290.497,-277.888"/>
<polygon fill="black" stroke="black" points="286.997,-277.896 290.497,-287.896 293.997,-277.896 286.997,-277.896"/>
<text text-anchor="middle" x="303.487" y="-257.903" font-family="Times New Roman,serif" font-size="8.00">use</text>
</g>
<!-- http://www.cordonbleu.eduCook -->
<g id="node13" class="node"><title>http://www.cordonbleu.eduCook</title>
<g id="a_node13"><a xlink:href="http://www.cordonbleu.eduCook" xlink:title="Cook">
<polygon fill="#fdb266" stroke="black" points="516.121,-311.562 477.497,-324 438.873,-311.562 438.909,-291.438 516.085,-291.438 516.121,-311.562"/>
<text text-anchor="middle" x="477.497" y="-302.3" font-family="Times New Roman,serif" font-size="14.00">Cook</text>
</a>
</g>
</g>
<!-- http://www.cordonbleu.eduMix&#45;&gt;http://www.cordonbleu.eduCook -->
<g id="edge10" class="edge"><title>http://www.cordonbleu.eduMix&#45;&gt;http://www.cordonbleu.eduCook</title>
<path fill="none" stroke="black" d="M317.756,-245.89C322.973,-247.942 328.397,-250.054 333.497,-252 351.697,-258.946 396.099,-275.253 430.826,-287.959"/>
<polygon fill="black" stroke="black" points="429.741,-291.289 440.335,-291.436 432.145,-284.714 429.741,-291.289"/>
<text text-anchor="middle" x="329.487" y="-234.642" font-family="Times New Roman,serif" font-size="8.00">assoc</text>
</g>
<!-- http://www.cordonbleu.eduBake -->
<g id="node2" class="node"><title>http://www.cordonbleu.eduBake</title>
<g id="a_node2"><a xlink:href="http://www.cordonbleu.eduBake" xlink:title="Bake">
<polygon fill="#9fb1fc" stroke="#0000ff" points="400.497,-180 346.497,-180 346.497,-144 400.497,-144 400.497,-180"/>
<text text-anchor="middle" x="373.497" y="-158.3" font-family="Times New Roman,serif" font-size="14.00">Bake</text>
</a>
</g>
</g>
<!-- http://www.cordonbleu.eduBake&#45;&gt;http://www.cordonbleu.eduMix -->
<g id="edge14" class="edge"><title>http://www.cordonbleu.eduBake&#45;&gt;http://www.cordonbleu.eduMix</title>
<path fill="none" stroke="black" d="M345.079,-186.967C336.535,-194.173 327.166,-202.074 318.64,-209.265"/>
<polygon fill="none" stroke="black" points="355.237,-182.979 345.336,-186.75 350.724,-177.628 355.237,-182.979"/>
<polygon fill="black" stroke="black" points="316.166,-206.773 310.778,-215.896 320.679,-212.124 316.166,-206.773"/>
<text text-anchor="middle" x="355.622" y="-193.169" font-family="Times New Roman,serif" font-size="8.00">start</text>
</g>
<!-- http://www.cordonbleu.eduOven -->
<g id="node12" class="node"><title>http://www.cordonbleu.eduOven</title>
<g id="a_node12"><a xlink:href="http://www.cordonbleu.eduOven" xlink:title="Oven">
<ellipse fill="#fffc87" stroke="#808080" cx="373.497" cy="-234" rx="30.5947" ry="18"/>
<text text-anchor="middle" x="373.497" y="-230.3" font-family="Times New Roman,serif" font-size="14.00">Oven</text>
</a>
</g>
</g>
<!-- http://www.cordonbleu.eduBake&#45;&gt;http://www.cordonbleu.eduOven -->
<g id="edge8" class="edge"><title>http://www.cordonbleu.eduBake&#45;&gt;http://www.cordonbleu.eduOven</title>
<path fill="none" stroke="black" d="M373.497,-180.303C373.497,-188.017 373.497,-197.288 373.497,-205.888"/>
<polygon fill="black" stroke="black" points="369.997,-205.896 373.497,-215.896 376.997,-205.896 369.997,-205.896"/>
<text text-anchor="middle" x="386.487" y="-185.903" font-family="Times New Roman,serif" font-size="8.00">use</text>
</g>
<!-- http://www.cordonbleu.eduBake&#45;&gt;http://www.cordonbleu.eduCook -->
<g id="edge11" class="edge"><title>http://www.cordonbleu.eduBake&#45;&gt;http://www.cordonbleu.eduCook</title>
<path fill="none" stroke="black" d="M386.568,-180.111C394.432,-190.456 404.608,-203.935 413.497,-216 430.28,-238.78 449.155,-265.118 462.032,-283.198"/>
<polygon fill="black" stroke="black" points="459.188,-285.238 467.836,-291.359 464.892,-281.181 459.188,-285.238"/>
<text text-anchor="middle" x="401.45" y="-176.327" font-family="Times New Roman,serif" font-size="8.00">assoc</text>
</g>
<!-- http://www.cordonbleu.eduDecorate -->
<g id="node3" class="node"><title>http://www.cordonbleu.eduDecorate</title>
<g id="a_node3"><a xlink:href="http://www.cordonbleu.eduDecorate" xlink:title="Decorate">
<polygon fill="#9fb1fc" stroke="#0000ff" points="406.997,-108 339.997,-108 339.997,-72 406.997,-72 406.997,-108"/>
<text text-anchor="middle" x="373.497" y="-86.3" font-family="Times New Roman,serif" font-size="14.00">Decorate</text>
</a>
</g>
</g>
<!-- http://www.cordonbleu.eduDecorate&#45;&gt;http://www.cordonbleu.eduBake -->
<g id="edge13" class="edge"><title>http://www.cordonbleu.eduDecorate&#45;&gt;http://www.cordonbleu.eduBake</title>
<path fill="none" stroke="black" d="M373.497,-118.335C373.497,-123.313 373.497,-128.509 373.497,-133.493"/>
<polygon fill="none" stroke="black" points="376.997,-108.303 373.497,-118.303 369.997,-108.303 376.997,-108.303"/>
<polygon fill="black" stroke="black" points="369.997,-133.896 373.497,-143.896 376.997,-133.896 369.997,-133.896"/>
<text text-anchor="middle" x="386.487" y="-113.903" font-family="Times New Roman,serif" font-size="8.00">start</text>
</g>
<!-- http://www.cordonbleu.eduIcing -->
<g id="node8" class="node"><title>http://www.cordonbleu.eduIcing</title>
<g id="a_node8"><a xlink:href="http://www.cordonbleu.eduIcing" xlink:title="Icing">
<ellipse fill="#fffc87" stroke="#808080" cx="271.497" cy="-162" rx="28.6953" ry="18"/>
<text text-anchor="middle" x="271.497" y="-158.3" font-family="Times New Roman,serif" font-size="14.00">Icing</text>
</a>
</g>
</g>
<!-- http://www.cordonbleu.eduDecorate&#45;&gt;http://www.cordonbleu.eduIcing -->
<g id="edge9" class="edge"><title>http://www.cordonbleu.eduDecorate&#45;&gt;http://www.cordonbleu.eduIcing</title>
<path fill="none" stroke="black" d="M348.545,-108.124C333.459,-118.477 314.215,-131.684 298.734,-142.308"/>
<polygon fill="black" stroke="black" points="296.378,-139.68 290.114,-148.224 300.339,-145.451 296.378,-139.68"/>
<text text-anchor="middle" x="349.712" y="-121.178" font-family="Times New Roman,serif" font-size="8.00">use</text>
</g>
<!-- http://www.cordonbleu.eduDecorate&#45;&gt;http://www.cordonbleu.eduCook -->
<g id="edge12" class="edge"><title>http://www.cordonbleu.eduDecorate&#45;&gt;http://www.cordonbleu.eduCook</title>
<path fill="none" stroke="black" d="M386.363,-108.137C393.651,-118.266 402.651,-131.516 409.497,-144 435.189,-190.849 457.71,-249.425 469.267,-281.428"/>
<polygon fill="black" stroke="black" points="466.099,-282.964 472.754,-291.207 472.692,-280.612 466.099,-282.964"/>
<text text-anchor="middle" x="401.293" y="-104.791" font-family="Times New Roman,serif" font-size="8.00">assoc</text>
</g>
<!-- http://www.cordonbleu.eduMilk -->
<g id="node4" class="node"><title>http://www.cordonbleu.eduMilk</title>
<g id="a_node4"><a xlink:href="http://www.cordonbleu.eduMilk" xlink:title="Milk">
<ellipse fill="#fffc87" stroke="#808080" cx="32.4971" cy="-378" rx="27" ry="18"/>
<text text-anchor="middle" x="32.4971" y="-374.3" font-family="Times New Roman,serif" font-size="14.00">Milk</text>
</a>
</g>
</g>
<!-- http://www.cordonbleu.eduButter&#45;&gt;http://www.cordonbleu.eduMilk -->
<g id="edge2" class="edge"><title>http://www.cordonbleu.eduButter&#45;&gt;http://www.cordonbleu.eduMilk</title>
<path fill="none" stroke="black" d="M32.4971,-324.303C32.4971,-332.017 32.4971,-341.288 32.4971,-349.888"/>
<polygon fill="black" stroke="black" points="28.9972,-349.896 32.4971,-359.896 35.9972,-349.896 28.9972,-349.896"/>
<text text-anchor="middle" x="45.4875" y="-329.903" font-family="Times New Roman,serif" font-size="8.00">der</text>
</g>
<!-- http://www.cordonbleu.eduIcing&#45;&gt;http://www.cordonbleu.eduButter -->
<g id="edge1" class="edge"><title>http://www.cordonbleu.eduIcing&#45;&gt;http://www.cordonbleu.eduButter</title>
<path fill="none" stroke="black" d="M251.12,-175.107C208.931,-200.173 111.844,-257.857 62.4849,-287.183"/>
<polygon fill="black" stroke="black" points="60.6573,-284.198 53.848,-292.315 64.2329,-290.216 60.6573,-284.198"/>
<text text-anchor="middle" x="251.308" y="-188.206" font-family="Times New Roman,serif" font-size="8.00">der</text>
</g>
<!-- http://www.cordonbleu.eduCake -->
<g id="node9" class="node"><title>http://www.cordonbleu.eduCake</title>
<g id="a_node9"><a xlink:href="http://www.cordonbleu.eduCake" xlink:title="Cake">
<ellipse fill="#fffc87" stroke="#808080" cx="373.497" cy="-18" rx="29.4969" ry="18"/>
<text text-anchor="middle" x="373.497" y="-14.3" font-family="Times New Roman,serif" font-size="14.00">Cake</text>
</a>
</g>
</g>
<!-- http://www.cordonbleu.eduCake&#45;&gt;http://www.cordonbleu.eduDecorate -->
<g id="edge15" class="edge"><title>http://www.cordonbleu.eduCake&#45;&gt;http://www.cordonbleu.eduDecorate</title>
<path fill="none" stroke="black" d="M373.497,-36.3034C373.497,-44.0173 373.497,-53.2875 373.497,-61.8876"/>
<polygon fill="black" stroke="black" points="369.997,-61.8956 373.497,-71.8957 376.997,-61.8957 369.997,-61.8956"/>
<text text-anchor="middle" x="386.487" y="-41.9034" font-family="Times New Roman,serif" font-size="8.00">gen</text>
</g>
</g>
</svg>
