<?xml version="1.0" encoding="UTF-8" standalone="no"?>
<!DOCTYPE svg PUBLIC "-//W3C//DTD SVG 1.1//EN"
 "http://www.w3.org/Graphics/SVG/1.1/DTD/svg11.dtd">
<!-- Generated by graphviz version 2.38.0 (20140413.2041)
 -->
<!-- Title: PROV Pages: 1 -->
<svg width="1152pt" height="203pt"
 viewBox="0.00 0.00 1152.00 203.23" xmlns="http://www.w3.org/2000/svg" xmlns:xlink="http://www.w3.org/1999/xlink">
<g id="graph0" class="graph" transform="scale(0.781668 0.781668) rotate(0) translate(4 256)">
<title>PROV</title>
<polygon fill="white" stroke="none" points="-4,4 -4,-256 1469.77,-256 1469.77,4 -4,4"/>
<!-- http://painters.orgPaint -->
<g id="node1" class="node"><title>http://painters.orgPaint</title>
<g id="a_node1"><a xlink:href="http://painters.orgPaint" xlink:title="Paint">
<polygon fill="#9fb1fc" stroke="#0000ff" points="948.041,-180 894.041,-180 894.041,-144 948.041,-144 948.041,-180"/>
<text text-anchor="middle" x="921.041" y="-158.3" font-family="Times New Roman,serif" font-size="14.00">Paint</text>
</a>
</g>
</g>
<!-- http://painters.orgDa_Vinci -->
<g id="node12" class="node"><title>http://painters.orgDa_Vinci</title>
<g id="a_node12"><a xlink:href="http://painters.orgDa_Vinci" xlink:title="Da_Vinci">
<polygon fill="#fdb266" stroke="black" points="1003.41,-239.562 948.041,-252 892.675,-239.562 892.727,-219.438 1003.35,-219.438 1003.41,-239.562"/>
<text text-anchor="middle" x="948.041" y="-230.3" font-family="Times New Roman,serif" font-size="14.00">Da_Vinci</text>
</a>
</g>
</g>
<!-- http://painters.orgPaint&#45;&gt;http://painters.orgDa_Vinci -->
<g id="edge25" class="edge"><title>http://painters.orgPaint&#45;&gt;http://painters.orgDa_Vinci</title>
<path fill="none" stroke="black" d="M927.715,-180.303C931.146,-189.198 935.375,-200.161 939.085,-209.781"/>
<polygon fill="black" stroke="black" points="935.844,-211.105 942.709,-219.175 942.375,-208.586 935.844,-211.105"/>
<text text-anchor="middle" x="942.534" y="-180.726" font-family="Times New Roman,serif" font-size="8.00">assoc</text>
</g>
<!-- http://painters.orgMichelangelo -->
<g id="node13" class="node"><title>http://painters.orgMichelangelo</title>
<g id="a_node13"><a xlink:href="http://painters.orgMichelangelo" xlink:title="Michelangelo">
<polygon fill="#fdb266" stroke="black" points="415.149,-239.562 343.041,-252 270.933,-239.562 271.001,-219.438 415.081,-219.438 415.149,-239.562"/>
<text text-anchor="middle" x="343.041" y="-230.3" font-family="Times New Roman,serif" font-size="14.00">Michelangelo</text>
</a>
</g>
</g>
<!-- http://painters.orgPaint&#45;&gt;http://painters.orgMichelangelo -->
<g id="edge26" class="edge"><title>http://painters.orgPaint&#45;&gt;http://painters.orgMichelangelo</title>
<path fill="none" stroke="black" d="M893.938,-166.282C810.899,-176.339 557.641,-207.01 425.4,-223.026"/>
<polygon fill="black" stroke="black" points="424.823,-219.57 415.316,-224.247 425.664,-226.519 424.823,-219.57"/>
<text text-anchor="middle" x="888.054" y="-178.18" font-family="Times New Roman,serif" font-size="8.00">assoc</text>
</g>
<!-- http://painters.orgSalvador_Dali -->
<g id="node14" class="node"><title>http://painters.orgSalvador_Dali</title>
<g id="a_node14"><a xlink:href="http://painters.orgSalvador_Dali" xlink:title="Salvador_Dali">
<polygon fill="#fdb266" stroke="black" points="1407.18,-239.562 1331.04,-252 1254.9,-239.562 1254.97,-219.438 1407.11,-219.438 1407.18,-239.562"/>
<text text-anchor="middle" x="1331.04" y="-230.3" font-family="Times New Roman,serif" font-size="14.00">Salvador_Dali</text>
</a>
</g>
</g>
<!-- http://painters.orgPaint&#45;&gt;http://painters.orgSalvador_Dali -->
<g id="edge27" class="edge"><title>http://painters.orgPaint&#45;&gt;http://painters.orgSalvador_Dali</title>
<path fill="none" stroke="black" d="M948.26,-167.647C1007.71,-177.797 1151.29,-202.312 1244.72,-218.262"/>
<polygon fill="black" stroke="black" points="1244.28,-221.738 1254.73,-219.971 1245.46,-214.838 1244.28,-221.738"/>
<text text-anchor="middle" x="957.839" y="-154.204" font-family="Times New Roman,serif" font-size="8.00">assoc</text>
</g>
<!-- http://painters.orgAcquire -->
<g id="node2" class="node"><title>http://painters.orgAcquire</title>
<g id="a_node2"><a xlink:href="http://painters.orgAcquire" xlink:title="Acquire">
<polygon fill="#9fb1fc" stroke="#0000ff" points="705.541,-36 644.541,-36 644.541,-0 705.541,-0 705.541,-36"/>
<text text-anchor="middle" x="675.041" y="-14.3" font-family="Times New Roman,serif" font-size="14.00">Acquire</text>
</a>
</g>
</g>
<!-- http://painters.orgThe_Last_Supper -->
<g id="node4" class="node"><title>http://painters.orgThe_Last_Supper</title>
<g id="a_node4"><a xlink:href="http://painters.orgThe_Last_Supper" xlink:title="The_Last_Supper">
<ellipse fill="#fffc87" stroke="#808080" cx="495.041" cy="-90" rx="76.8869" ry="18"/>
<text text-anchor="middle" x="495.041" y="-86.3" font-family="Times New Roman,serif" font-size="14.00">The_Last_Supper</text>
</a>
</g>
</g>
<!-- http://painters.orgAcquire&#45;&gt;http://painters.orgThe_Last_Supper -->
<g id="edge13" class="edge"><title>http://painters.orgAcquire&#45;&gt;http://painters.orgThe_Last_Supper</title>
<path fill="none" stroke="black" d="M644.506,-30.8745C616.6,-41.7269 574.888,-57.9482 542.615,-70.4991"/>
<polygon fill="black" stroke="black" points="540.979,-67.3798 532.927,-74.2664 543.516,-73.9039 540.979,-67.3798"/>
<text text-anchor="middle" x="642.225" y="-43.8" font-family="Times New Roman,serif" font-size="8.00">use</text>
</g>
<!-- http://painters.orgMonalisa -->
<g id="node5" class="node"><title>http://painters.orgMonalisa</title>
<g id="a_node5"><a xlink:href="http://painters.orgMonalisa" xlink:title="Monalisa">
<ellipse fill="#fffc87" stroke="#808080" cx="976.041" cy="-90" rx="43.5923" ry="18"/>
<text text-anchor="middle" x="976.041" y="-86.3" font-family="Times New Roman,serif" font-size="14.00">Monalisa</text>
</a>
</g>
</g>
<!-- http://painters.orgAcquire&#45;&gt;http://painters.orgMonalisa -->
<g id="edge14" class="edge"><title>http://painters.orgAcquire&#45;&gt;http://painters.orgMonalisa</title>
<path fill="none" stroke="black" d="M705.819,-24.5525C752.931,-33.2819 845.613,-51.364 923.041,-72 926.459,-72.911 929.984,-73.9092 933.514,-74.9509"/>
<polygon fill="black" stroke="black" points="932.81,-78.3952 943.396,-77.9657 934.853,-71.6999 932.81,-78.3952"/>
<text text-anchor="middle" x="715.582" y="-11.2653" font-family="Times New Roman,serif" font-size="8.00">use</text>
</g>
<!-- http://painters.orgThe_Annunciation -->
<g id="node6" class="node"><title>http://painters.orgThe_Annunciation</title>
<g id="a_node6"><a xlink:href="http://painters.orgThe_Annunciation" xlink:title="The_Annunciation">
<ellipse fill="#fffc87" stroke="#808080" cx="1115.04" cy="-90" rx="77.1866" ry="18"/>
<text text-anchor="middle" x="1115.04" y="-86.3" font-family="Times New Roman,serif" font-size="14.00">The_Annunciation</text>
</a>
</g>
</g>
<!-- http://painters.orgAcquire&#45;&gt;http://painters.orgThe_Annunciation -->
<g id="edge15" class="edge"><title>http://painters.orgAcquire&#45;&gt;http://painters.orgThe_Annunciation</title>
<path fill="none" stroke="black" d="M705.897,-23.1273C767.479,-31.4731 909.953,-51.3265 1029.04,-72 1035.59,-73.1368 1042.41,-74.3805 1049.21,-75.6616"/>
<polygon fill="black" stroke="black" points="1048.66,-79.119 1059.14,-77.557 1049.97,-72.2432 1048.66,-79.119"/>
<text text-anchor="middle" x="715.085" y="-9.37039" font-family="Times New Roman,serif" font-size="8.00">use</text>
</g>
<!-- http://painters.orgThe_Creation_Of_Adam -->
<g id="node7" class="node"><title>http://painters.orgThe_Creation_Of_Adam</title>
<g id="a_node7"><a xlink:href="http://painters.orgThe_Creation_Of_Adam" xlink:title="The_Creation_Of_Adam">
<ellipse fill="#fffc87" stroke="#808080" cx="102.041" cy="-90" rx="102.082" ry="18"/>
<text text-anchor="middle" x="102.041" y="-86.3" font-family="Times New Roman,serif" font-size="14.00">The_Creation_Of_Adam</text>
</a>
</g>
</g>
<!-- http://painters.orgAcquire&#45;&gt;http://painters.orgThe_Creation_Of_Adam -->
<g id="edge16" class="edge"><title>http://painters.orgAcquire&#45;&gt;http://painters.orgThe_Creation_Of_Adam</title>
<path fill="none" stroke="black" d="M644.448,-22.1059C570.326,-29.719 375.282,-50.278 213.041,-72 204.03,-73.2064 194.619,-74.5375 185.252,-75.9076"/>
<polygon fill="black" stroke="black" points="184.507,-72.4797 175.127,-77.4057 185.531,-79.4043 184.507,-72.4797"/>
<text text-anchor="middle" x="638.325" y="-33.8993" font-family="Times New Roman,serif" font-size="8.00">use</text>
</g>
<!-- http://painters.orgThe_Last_Judgement -->
<g id="node8" class="node"><title>http://painters.orgThe_Last_Judgement</title>
<g id="a_node8"><a xlink:href="http://painters.orgThe_Last_Judgement" xlink:title="The_Last_Judgement">
<ellipse fill="#fffc87" stroke="#808080" cx="311.041" cy="-90" rx="89.0842" ry="18"/>
<text text-anchor="middle" x="311.041" y="-86.3" font-family="Times New Roman,serif" font-size="14.00">The_Last_Judgement</text>
</a>
</g>
</g>
<!-- http://painters.orgAcquire&#45;&gt;http://painters.orgThe_Last_Judgement -->
<g id="edge17" class="edge"><title>http://painters.orgAcquire&#45;&gt;http://painters.orgThe_Last_Judgement</title>
<path fill="none" stroke="black" d="M644.32,-24.9078C587.12,-35.9078 462.892,-59.7979 383.316,-75.101"/>
<polygon fill="black" stroke="black" points="382.518,-71.6901 373.359,-77.0157 383.84,-78.5642 382.518,-71.6901"/>
<text text-anchor="middle" x="639.408" y="-37.1808" font-family="Times New Roman,serif" font-size="8.00">use</text>
</g>
<!-- http://painters.orgPrado_Museum -->
<g id="node15" class="node"><title>http://painters.orgPrado_Museum</title>
<g id="a_node15"><a xlink:href="http://painters.orgPrado_Museum" xlink:title="Prado_Museum">
<polygon fill="#fdb266" stroke="black" points="760.356,-95.5623 675.041,-108 589.726,-95.5623 589.805,-75.4377 760.277,-75.4377 760.356,-95.5623"/>
<text text-anchor="middle" x="675.041" y="-86.3" font-family="Times New Roman,serif" font-size="14.00">Prado_Museum</text>
</a>
</g>
</g>
<!-- http://painters.orgAcquire&#45;&gt;http://painters.orgPrado_Museum -->
<g id="edge29" class="edge"><title>http://painters.orgAcquire&#45;&gt;http://painters.orgPrado_Museum</title>
<path fill="none" stroke="black" d="M675.041,-36.3034C675.041,-45.0105 675.041,-55.7005 675.041,-65.1713"/>
<polygon fill="black" stroke="black" points="671.541,-65.1754 675.041,-75.1755 678.541,-65.1755 671.541,-65.1754"/>
<text text-anchor="middle" x="688.031" y="-41.9034" font-family="Times New Roman,serif" font-size="8.00">assoc</text>
</g>
<!-- http://painters.orgReina_Sofia -->
<g id="node16" class="node"><title>http://painters.orgReina_Sofia</title>
<g id="a_node16"><a xlink:href="http://painters.orgReina_Sofia" xlink:title="Reina_Sofia">
<polygon fill="#fdb266" stroke="black" points="914.115,-95.5623 846.041,-108 777.967,-95.5623 778.03,-75.4377 914.051,-75.4377 914.115,-95.5623"/>
<text text-anchor="middle" x="846.041" y="-86.3" font-family="Times New Roman,serif" font-size="14.00">Reina_Sofia</text>
</a>
</g>
</g>
<!-- http://painters.orgAcquire&#45;&gt;http://painters.orgReina_Sofia -->
<g id="edge30" class="edge"><title>http://painters.orgAcquire&#45;&gt;http://painters.orgReina_Sofia</title>
<path fill="none" stroke="black" d="M705.612,-31.5146C732.831,-42.6568 772.93,-59.0714 803.317,-71.5109"/>
<polygon fill="black" stroke="black" points="802.233,-74.8488 812.814,-75.3982 804.885,-68.3706 802.233,-74.8488"/>
<text text-anchor="middle" x="717.475" y="-20.4338" font-family="Times New Roman,serif" font-size="8.00">assoc</text>
</g>
<!-- http://painters.orgDonate -->
<g id="node3" class="node"><title>http://painters.orgDonate</title>
<g id="a_node3"><a xlink:href="http://painters.orgDonate" xlink:title="Donate">
<polygon fill="#9fb1fc" stroke="#0000ff" points="1433.04,-36 1377.04,-36 1377.04,-0 1433.04,-0 1433.04,-36"/>
<text text-anchor="middle" x="1405.04" y="-14.3" font-family="Times New Roman,serif" font-size="14.00">Donate</text>
</a>
</g>
</g>
<!-- http://painters.orgThe_Persistence_Of_Memory -->
<g id="node9" class="node"><title>http://painters.orgThe_Persistence_Of_Memory</title>
<g id="a_node9"><a xlink:href="http://painters.orgThe_Persistence_Of_Memory" xlink:title="The_Persistence_Of_Memory">
<ellipse fill="#fffc87" stroke="#808080" cx="1331.04" cy="-90" rx="120.779" ry="18"/>
<text text-anchor="middle" x="1331.04" y="-86.3" font-family="Times New Roman,serif" font-size="14.00">The_Persistence_Of_Memory</text>
</a>
</g>
</g>
<!-- http://painters.orgDonate&#45;&gt;http://painters.orgThe_Persistence_Of_Memory -->
<g id="edge18" class="edge"><title>http://painters.orgDonate&#45;&gt;http://painters.orgThe_Persistence_Of_Memory</title>
<path fill="none" stroke="black" d="M1386.75,-36.3034C1377.54,-45.0143 1366.23,-55.7098 1356.22,-65.1837"/>
<polygon fill="black" stroke="black" points="1353.73,-62.7225 1348.87,-72.1372 1358.54,-67.8078 1353.73,-62.7225"/>
<text text-anchor="middle" x="1390.23" y="-48.9945" font-family="Times New Roman,serif" font-size="8.00">use</text>
</g>
<!-- http://painters.orgDonate&#45;&gt;http://painters.orgSalvador_Dali -->
<g id="edge28" class="edge"><title>http://painters.orgDonate&#45;&gt;http://painters.orgSalvador_Dali</title>
<path fill="none" stroke="black" d="M1431.16,-36.1842C1442.62,-45.3075 1454.85,-57.6143 1461.04,-72 1467.37,-86.6964 1467.31,-93.2787 1461.04,-108 1441.14,-154.74 1394.25,-192.443 1362.57,-213.791"/>
<polygon fill="black" stroke="black" points="1360.51,-210.956 1354.07,-219.372 1364.35,-216.807 1360.51,-210.956"/>
<text text-anchor="middle" x="1445.2" y="-28.9949" font-family="Times New Roman,serif" font-size="8.00">assoc</text>
</g>
<!-- http://painters.orgThe_Last_Supper&#45;&gt;http://painters.orgPaint -->
<g id="edge7" class="edge"><title>http://painters.orgThe_Last_Supper&#45;&gt;http://painters.orgPaint</title>
<path fill="none" stroke="black" d="M550.955,-102.394C560.96,-104.335 571.299,-106.279 581.041,-108 690.597,-127.359 820.681,-146.599 883.453,-155.649"/>
<polygon fill="black" stroke="black" points="883.258,-159.157 893.654,-157.115 884.254,-152.228 883.258,-159.157"/>
<text text-anchor="middle" x="560.785" y="-89.1641" font-family="Times New Roman,serif" font-size="8.00">gen</text>
</g>
<!-- http://painters.orgFresco -->
<g id="node11" class="node"><title>http://painters.orgFresco</title>
<g id="a_node11"><a xlink:href="http://painters.orgFresco" xlink:title="Fresco">
<ellipse fill="#fffc87" stroke="#808080" cx="279.041" cy="-162" rx="36.2938" ry="18"/>
<text text-anchor="middle" x="279.041" y="-158.3" font-family="Times New Roman,serif" font-size="14.00">Fresco</text>
</a>
</g>
</g>
<!-- http://painters.orgThe_Last_Supper&#45;&gt;http://painters.orgFresco -->
<g id="edge1" class="edge"><title>http://painters.orgThe_Last_Supper&#45;&gt;http://painters.orgFresco</title>
<path fill="none" stroke="black" d="M451.849,-104.997C412.859,-117.633 355.986,-136.064 318.271,-148.287"/>
<polygon fill="black" stroke="black" points="317.08,-144.993 308.646,-151.406 319.238,-151.652 317.08,-144.993"/>
<text text-anchor="middle" x="448.719" y="-117.767" font-family="Times New Roman,serif" font-size="8.00">der</text>
</g>
<!-- http://painters.orgThe_Last_Supper&#45;&gt;http://painters.orgDa_Vinci -->
<g id="edge19" class="edge"><title>http://painters.orgThe_Last_Supper&#45;&gt;http://painters.orgDa_Vinci</title>
<path fill="none" stroke="black" d="M539.301,-104.874C623.097,-131.141 804.584,-188.031 894.844,-216.324"/>
<polygon fill="black" stroke="black" points="894.011,-219.731 904.6,-219.383 896.105,-213.052 894.011,-219.731"/>
<text text-anchor="middle" x="550.344" y="-92.8218" font-family="Times New Roman,serif" font-size="8.00">att</text>
</g>
<!-- http://painters.orgMonalisa&#45;&gt;http://painters.orgPaint -->
<g id="edge8" class="edge"><title>http://painters.orgMonalisa&#45;&gt;http://painters.orgPaint</title>
<path fill="none" stroke="black" d="M963.285,-107.235C956.609,-115.732 948.287,-126.323 940.799,-135.854"/>
<polygon fill="black" stroke="black" points="937.922,-133.85 934.495,-143.876 943.426,-138.175 937.922,-133.85"/>
<text text-anchor="middle" x="968.866" y="-119.258" font-family="Times New Roman,serif" font-size="8.00">gen</text>
</g>
<!-- http://painters.orgOil -->
<g id="node10" class="node"><title>http://painters.orgOil</title>
<g id="a_node10"><a xlink:href="http://painters.orgOil" xlink:title="Oil">
<ellipse fill="#fffc87" stroke="#808080" cx="1115.04" cy="-162" rx="27" ry="18"/>
<text text-anchor="middle" x="1115.04" y="-158.3" font-family="Times New Roman,serif" font-size="14.00">Oil</text>
</a>
</g>
</g>
<!-- http://painters.orgMonalisa&#45;&gt;http://painters.orgOil -->
<g id="edge2" class="edge"><title>http://painters.orgMonalisa&#45;&gt;http://painters.orgOil</title>
<path fill="none" stroke="black" d="M1002.51,-104.331C1026.02,-116.168 1060.34,-133.455 1084.9,-145.82"/>
<polygon fill="black" stroke="black" points="1083.6,-149.087 1094.11,-150.459 1086.75,-142.835 1083.6,-149.087"/>
<text text-anchor="middle" x="1015.05" y="-94.2024" font-family="Times New Roman,serif" font-size="8.00">der</text>
</g>
<!-- http://painters.orgMonalisa&#45;&gt;http://painters.orgDa_Vinci -->
<g id="edge20" class="edge"><title>http://painters.orgMonalisa&#45;&gt;http://painters.orgDa_Vinci</title>
<path fill="none" stroke="black" d="M972.663,-108.129C967.685,-133.376 958.359,-180.672 952.723,-209.255"/>
<polygon fill="black" stroke="black" points="949.261,-208.72 950.761,-219.208 956.129,-210.074 949.261,-208.72"/>
<text text-anchor="middle" x="983.958" y="-116.1" font-family="Times New Roman,serif" font-size="8.00">att</text>
</g>
<!-- http://painters.orgThe_Annunciation&#45;&gt;http://painters.orgPaint -->
<g id="edge9" class="edge"><title>http://painters.orgThe_Annunciation&#45;&gt;http://painters.orgPaint</title>
<path fill="none" stroke="black" d="M1074.84,-105.504C1040.45,-117.916 991.333,-135.637 957.926,-147.691"/>
<polygon fill="black" stroke="black" points="956.314,-144.552 948.096,-151.238 958.69,-151.136 956.314,-144.552"/>
<text text-anchor="middle" x="1072.2" y="-118.369" font-family="Times New Roman,serif" font-size="8.00">gen</text>
</g>
<!-- http://painters.orgThe_Annunciation&#45;&gt;http://painters.orgOil -->
<g id="edge3" class="edge"><title>http://painters.orgThe_Annunciation&#45;&gt;http://painters.orgOil</title>
<path fill="none" stroke="black" d="M1115.04,-108.303C1115.04,-116.017 1115.04,-125.288 1115.04,-133.888"/>
<polygon fill="black" stroke="black" points="1111.54,-133.896 1115.04,-143.896 1118.54,-133.896 1111.54,-133.896"/>
<text text-anchor="middle" x="1128.03" y="-113.903" font-family="Times New Roman,serif" font-size="8.00">der</text>
</g>
<!-- http://painters.orgThe_Annunciation&#45;&gt;http://painters.orgDa_Vinci -->
<g id="edge21" class="edge"><title>http://painters.orgThe_Annunciation&#45;&gt;http://painters.orgDa_Vinci</title>
<path fill="none" stroke="black" d="M1095.56,-107.567C1064.94,-133.601 1005.63,-184.036 972.293,-212.379"/>
<polygon fill="black" stroke="black" points="969.762,-209.936 964.411,-219.08 974.297,-215.269 969.762,-209.936"/>
<text text-anchor="middle" x="1098.26" y="-120.422" font-family="Times New Roman,serif" font-size="8.00">att</text>
</g>
<!-- http://painters.orgThe_Creation_Of_Adam&#45;&gt;http://painters.orgPaint -->
<g id="edge10" class="edge"><title>http://painters.orgThe_Creation_Of_Adam&#45;&gt;http://painters.orgPaint</title>
<path fill="none" stroke="black" d="M173.883,-102.832C186.892,-104.738 200.353,-106.556 213.041,-108 468.792,-137.113 778.413,-153.996 883.834,-159.23"/>
<polygon fill="black" stroke="black" points="883.802,-162.733 893.962,-159.728 884.146,-155.741 883.802,-162.733"/>
<text text-anchor="middle" x="183.173" y="-89.1547" font-family="Times New Roman,serif" font-size="8.00">gen</text>
</g>
<!-- http://painters.orgThe_Creation_Of_Adam&#45;&gt;http://painters.orgFresco -->
<g id="edge4" class="edge"><title>http://painters.orgThe_Creation_Of_Adam&#45;&gt;http://painters.orgFresco</title>
<path fill="none" stroke="black" d="M141.763,-106.709C171.799,-118.588 212.736,-134.778 242.076,-146.381"/>
<polygon fill="black" stroke="black" points="240.962,-149.704 251.549,-150.127 243.537,-143.195 240.962,-149.704"/>
<text text-anchor="middle" x="153.515" y="-95.4876" font-family="Times New Roman,serif" font-size="8.00">der</text>
</g>
<!-- http://painters.orgThe_Creation_Of_Adam&#45;&gt;http://painters.orgMichelangelo -->
<g id="edge22" class="edge"><title>http://painters.orgThe_Creation_Of_Adam&#45;&gt;http://painters.orgMichelangelo</title>
<path fill="none" stroke="black" d="M124.775,-107.77C150.59,-126.467 194.291,-157.087 234.041,-180 256.174,-192.758 281.829,-205.335 302.687,-215.034"/>
<polygon fill="black" stroke="black" points="301.356,-218.274 311.903,-219.278 304.284,-211.916 301.356,-218.274"/>
<text text-anchor="middle" x="138.452" y="-99.7109" font-family="Times New Roman,serif" font-size="8.00">att</text>
</g>
<!-- http://painters.orgThe_Last_Judgement&#45;&gt;http://painters.orgPaint -->
<g id="edge11" class="edge"><title>http://painters.orgThe_Last_Judgement&#45;&gt;http://painters.orgPaint</title>
<path fill="none" stroke="black" d="M374.465,-102.656C385.951,-104.581 397.837,-106.45 409.041,-108 586.249,-132.513 799.397,-151.098 883.913,-158.036"/>
<polygon fill="black" stroke="black" points="883.787,-161.538 894.039,-158.862 884.356,-154.561 883.787,-161.538"/>
<text text-anchor="middle" x="383.996" y="-89.1737" font-family="Times New Roman,serif" font-size="8.00">gen</text>
</g>
<!-- http://painters.orgThe_Last_Judgement&#45;&gt;http://painters.orgFresco -->
<g id="edge5" class="edge"><title>http://painters.orgThe_Last_Judgement&#45;&gt;http://painters.orgFresco</title>
<path fill="none" stroke="black" d="M303.295,-107.945C299.6,-116.027 295.096,-125.879 290.978,-134.888"/>
<polygon fill="black" stroke="black" points="287.69,-133.661 286.716,-144.211 294.057,-136.571 287.69,-133.661"/>
<text text-anchor="middle" x="311.991" y="-118.267" font-family="Times New Roman,serif" font-size="8.00">der</text>
</g>
<!-- http://painters.orgThe_Last_Judgement&#45;&gt;http://painters.orgMichelangelo -->
<g id="edge23" class="edge"><title>http://painters.orgThe_Last_Judgement&#45;&gt;http://painters.orgMichelangelo</title>
<path fill="none" stroke="black" d="M315.388,-108.155C317.979,-118.516 321.288,-131.995 324.041,-144 329.124,-166.167 334.498,-191.543 338.229,-209.512"/>
<polygon fill="black" stroke="black" points="334.821,-210.316 340.271,-219.402 341.676,-208.9 334.821,-210.316"/>
<text text-anchor="middle" x="329.807" y="-110.388" font-family="Times New Roman,serif" font-size="8.00">att</text>
</g>
<!-- http://painters.orgThe_Persistence_Of_Memory&#45;&gt;http://painters.orgPaint -->
<g id="edge12" class="edge"><title>http://painters.orgThe_Persistence_Of_Memory&#45;&gt;http://painters.orgPaint</title>
<path fill="none" stroke="black" d="M1254.88,-104.002C1166.74,-119.052 1025.14,-143.227 958.285,-154.641"/>
<polygon fill="black" stroke="black" points="957.485,-151.227 948.216,-156.36 958.663,-158.127 957.485,-151.227"/>
<text text-anchor="middle" x="1249.68" y="-116.17" font-family="Times New Roman,serif" font-size="8.00">gen</text>
</g>
<!-- http://painters.orgThe_Persistence_Of_Memory&#45;&gt;http://painters.orgOil -->
<g id="edge6" class="edge"><title>http://painters.orgThe_Persistence_Of_Memory&#45;&gt;http://painters.orgOil</title>
<path fill="none" stroke="black" d="M1283.1,-106.535C1242.21,-119.789 1184.46,-138.504 1148.41,-150.185"/>
<polygon fill="black" stroke="black" points="1147.29,-146.871 1138.85,-153.283 1149.44,-153.53 1147.29,-146.871"/>
<text text-anchor="middle" x="1279.97" y="-119.305" font-family="Times New Roman,serif" font-size="8.00">der</text>
</g>
<!-- http://painters.orgThe_Persistence_Of_Memory&#45;&gt;http://painters.orgSalvador_Dali -->
<g id="edge24" class="edge"><title>http://painters.orgThe_Persistence_Of_Memory&#45;&gt;http://painters.orgSalvador_Dali</title>
<path fill="none" stroke="black" d="M1331.04,-108.129C1331.04,-133.265 1331.04,-180.256 1331.04,-208.876"/>
<polygon fill="black" stroke="black" points="1327.54,-209.208 1331.04,-219.208 1334.54,-209.208 1327.54,-209.208"/>
<text text-anchor="middle" x="1344.03" y="-113.729" font-family="Times New Roman,serif" font-size="8.00">att</text>
</g>
</g>
</svg>
