<?xml version="1.0" encoding="UTF-8" standalone="no"?>
<!DOCTYPE svg PUBLIC "-//W3C//DTD SVG 1.1//EN"
 "http://www.w3.org/Graphics/SVG/1.1/DTD/svg11.dtd">
<!-- Generated by graphviz version 2.38.0 (20140413.2041)
 -->
<!-- Title: PROV Pages: 1 -->
<svg width="1090pt" height="260pt"
 viewBox="0.00 0.00 1090.14 260.00" xmlns="http://www.w3.org/2000/svg" xmlns:xlink="http://www.w3.org/1999/xlink">
<g id="graph0" class="graph" transform="scale(1 1) rotate(0) translate(4 256)">
<title>PROV</title>
<polygon fill="white" stroke="none" points="-4,4 -4,-256 1086.14,-256 1086.14,4 -4,4"/>
<!-- http://painters.orgPaint -->
<g id="node1" class="node"><title>http://painters.orgPaint</title>
<g id="a_node1"><a xlink:href="http://painters.orgPaint" xlink:title="Paint">
<polygon fill="#9fb1fc" stroke="#0000ff" points="659.144,-180 605.144,-180 605.144,-144 659.144,-144 659.144,-180"/>
<text text-anchor="middle" x="632.144" y="-158.3" font-family="Times New Roman,serif" font-size="14.00">Paint</text>
</a>
</g>
</g>
<!-- http://painters.orgDa_Vinci -->
<g id="node12" class="node"><title>http://painters.orgDa_Vinci</title>
<g id="a_node12"><a xlink:href="http://painters.orgDa_Vinci" xlink:title="Da_Vinci">
<polygon fill="#fdb266" stroke="black" points="714.509,-239.562 659.144,-252 603.778,-239.562 603.83,-219.438 714.457,-219.438 714.509,-239.562"/>
<text text-anchor="middle" x="659.144" y="-230.3" font-family="Times New Roman,serif" font-size="14.00">Da_Vinci</text>
</a>
</g>
</g>
<!-- http://painters.orgPaint&#45;&gt;http://painters.orgDa_Vinci -->
<g id="edge25" class="edge"><title>http://painters.orgPaint&#45;&gt;http://painters.orgDa_Vinci</title>
<path fill="none" stroke="black" d="M638.818,-180.303C642.248,-189.198 646.477,-200.161 650.188,-209.781"/>
<polygon fill="black" stroke="black" points="646.947,-211.105 653.811,-219.175 653.478,-208.586 646.947,-211.105"/>
<text text-anchor="middle" x="653.637" y="-180.726" font-family="Times New Roman,serif" font-size="8.00">assoc</text>
</g>
<!-- http://painters.orgMichelangelo -->
<g id="node13" class="node"><title>http://painters.orgMichelangelo</title>
<g id="a_node13"><a xlink:href="http://painters.orgMichelangelo" xlink:title="Michelangelo">
<polygon fill="#fdb266" stroke="black" points="344.251,-239.562 272.144,-252 200.036,-239.562 200.103,-219.438 344.184,-219.438 344.251,-239.562"/>
<text text-anchor="middle" x="272.144" y="-230.3" font-family="Times New Roman,serif" font-size="14.00">Michelangelo</text>
</a>
</g>
</g>
<!-- http://painters.orgPaint&#45;&gt;http://painters.orgMichelangelo -->
<g id="edge26" class="edge"><title>http://painters.orgPaint&#45;&gt;http://painters.orgMichelangelo</title>
<path fill="none" stroke="black" d="M605.085,-168.261C552.082,-178.567 432.75,-201.771 352.315,-217.411"/>
<polygon fill="black" stroke="black" points="351.364,-214.03 342.216,-219.375 352.7,-220.902 351.364,-214.03"/>
<text text-anchor="middle" x="600.202" y="-180.544" font-family="Times New Roman,serif" font-size="8.00">assoc</text>
</g>
<!-- http://painters.orgDali -->
<g id="node14" class="node"><title>http://painters.orgDali</title>
<g id="a_node14"><a xlink:href="http://painters.orgDali" xlink:title="Dali">
<polygon fill="#fdb266" stroke="black" points="1006.7,-239.562 976.144,-252 945.587,-239.562 945.616,-219.438 1006.67,-219.438 1006.7,-239.562"/>
<text text-anchor="middle" x="976.144" y="-230.3" font-family="Times New Roman,serif" font-size="14.00">Dali</text>
</a>
</g>
</g>
<!-- http://painters.orgPaint&#45;&gt;http://painters.orgDali -->
<g id="edge27" class="edge"><title>http://painters.orgPaint&#45;&gt;http://painters.orgDali</title>
<path fill="none" stroke="black" d="M659.424,-168.551C719.707,-180.818 864.522,-210.286 935.517,-224.733"/>
<polygon fill="black" stroke="black" points="934.94,-228.187 945.437,-226.752 936.336,-221.328 934.94,-228.187"/>
<text text-anchor="middle" x="669.364" y="-155.417" font-family="Times New Roman,serif" font-size="8.00">assoc</text>
</g>
<!-- http://painters.orgAcquire -->
<g id="node2" class="node"><title>http://painters.orgAcquire</title>
<g id="a_node2"><a xlink:href="http://painters.orgAcquire" xlink:title="Acquire">
<polygon fill="#9fb1fc" stroke="#0000ff" points="523.644,-36 462.644,-36 462.644,-0 523.644,-0 523.644,-36"/>
<text text-anchor="middle" x="493.144" y="-14.3" font-family="Times New Roman,serif" font-size="14.00">Acquire</text>
</a>
</g>
</g>
<!-- http://painters.orgLast_Supper -->
<g id="node4" class="node"><title>http://painters.orgLast_Supper</title>
<g id="a_node4"><a xlink:href="http://painters.orgLast_Supper" xlink:title="Last_Supper">
<ellipse fill="#fffc87" stroke="#808080" cx="377.144" cy="-90" rx="57.6901" ry="18"/>
<text text-anchor="middle" x="377.144" y="-86.3" font-family="Times New Roman,serif" font-size="14.00">Last_Supper</text>
</a>
</g>
</g>
<!-- http://painters.orgAcquire&#45;&gt;http://painters.orgLast_Supper -->
<g id="edge13" class="edge"><title>http://painters.orgAcquire&#45;&gt;http://painters.orgLast_Supper</title>
<path fill="none" stroke="black" d="M464.767,-36.1239C448.545,-45.9126 428.098,-58.2514 411.037,-68.5472"/>
<polygon fill="black" stroke="black" points="409.217,-65.5573 402.464,-73.7207 412.834,-71.5506 409.217,-65.5573"/>
<text text-anchor="middle" x="465.057" y="-49.2211" font-family="Times New Roman,serif" font-size="8.00">use</text>
</g>
<!-- http://painters.orgMonalisa -->
<g id="node5" class="node"><title>http://painters.orgMonalisa</title>
<g id="a_node5"><a xlink:href="http://painters.orgMonalisa" xlink:title="Monalisa">
<ellipse fill="#fffc87" stroke="#808080" cx="687.144" cy="-90" rx="43.5923" ry="18"/>
<text text-anchor="middle" x="687.144" y="-86.3" font-family="Times New Roman,serif" font-size="14.00">Monalisa</text>
</a>
</g>
</g>
<!-- http://painters.orgAcquire&#45;&gt;http://painters.orgMonalisa -->
<g id="edge14" class="edge"><title>http://painters.orgAcquire&#45;&gt;http://painters.orgMonalisa</title>
<path fill="none" stroke="black" d="M523.883,-30.0917C556.697,-41.9317 608.889,-60.7638 645.404,-73.9392"/>
<polygon fill="black" stroke="black" points="644.664,-77.393 655.258,-77.4948 647.039,-70.8085 644.664,-77.393"/>
<text text-anchor="middle" x="535.347" y="-18.518" font-family="Times New Roman,serif" font-size="8.00">use</text>
</g>
<!-- http://painters.orgAnnunciation -->
<g id="node6" class="node"><title>http://painters.orgAnnunciation</title>
<g id="a_node6"><a xlink:href="http://painters.orgAnnunciation" xlink:title="Annunciation">
<ellipse fill="#fffc87" stroke="#808080" cx="807.144" cy="-90" rx="58.4896" ry="18"/>
<text text-anchor="middle" x="807.144" y="-86.3" font-family="Times New Roman,serif" font-size="14.00">Annunciation</text>
</a>
</g>
</g>
<!-- http://painters.orgAcquire&#45;&gt;http://painters.orgAnnunciation -->
<g id="edge15" class="edge"><title>http://painters.orgAcquire&#45;&gt;http://painters.orgAnnunciation</title>
<path fill="none" stroke="black" d="M523.645,-25.1651C570.369,-34.6949 662.423,-53.808 740.144,-72 744.723,-73.0718 749.47,-74.2138 754.226,-75.3794"/>
<polygon fill="black" stroke="black" points="753.403,-78.7813 763.951,-77.7902 755.087,-71.9869 753.403,-78.7813"/>
<text text-anchor="middle" x="533.598" y="-12.043" font-family="Times New Roman,serif" font-size="8.00">use</text>
</g>
<!-- http://painters.orgAdams_Creation -->
<g id="node7" class="node"><title>http://painters.orgAdams_Creation</title>
<g id="a_node7"><a xlink:href="http://painters.orgAdams_Creation" xlink:title="Adams_Creation">
<ellipse fill="#fffc87" stroke="#808080" cx="72.1436" cy="-90" rx="72.2875" ry="18"/>
<text text-anchor="middle" x="72.1436" y="-86.3" font-family="Times New Roman,serif" font-size="14.00">Adams_Creation</text>
</a>
</g>
</g>
<!-- http://painters.orgAcquire&#45;&gt;http://painters.orgAdams_Creation -->
<g id="edge16" class="edge"><title>http://painters.orgAcquire&#45;&gt;http://painters.orgAdams_Creation</title>
<path fill="none" stroke="black" d="M462.576,-23.2186C402.918,-31.5727 266.858,-51.2186 153.144,-72 147.258,-73.0756 141.144,-74.2511 135.031,-75.4655"/>
<polygon fill="black" stroke="black" points="133.895,-72.1242 124.787,-77.5353 135.282,-78.9856 133.895,-72.1242"/>
<text text-anchor="middle" x="456.965" y="-35.2295" font-family="Times New Roman,serif" font-size="8.00">use</text>
</g>
<!-- http://painters.orgLast_Judgement -->
<g id="node8" class="node"><title>http://painters.orgLast_Judgement</title>
<g id="a_node8"><a xlink:href="http://painters.orgLast_Judgement" xlink:title="Last_Judgement">
<ellipse fill="#fffc87" stroke="#808080" cx="232.144" cy="-90" rx="69.5877" ry="18"/>
<text text-anchor="middle" x="232.144" y="-86.3" font-family="Times New Roman,serif" font-size="14.00">Last_Judgement</text>
</a>
</g>
</g>
<!-- http://painters.orgAcquire&#45;&gt;http://painters.orgLast_Judgement -->
<g id="edge17" class="edge"><title>http://painters.orgAcquire&#45;&gt;http://painters.orgLast_Judgement</title>
<path fill="none" stroke="black" d="M462.436,-27.2357C419.774,-38.6777 341.818,-59.5854 288.528,-73.8776"/>
<polygon fill="black" stroke="black" points="287.3,-70.5832 278.548,-76.5543 289.114,-77.3443 287.3,-70.5832"/>
<text text-anchor="middle" x="458.557" y="-39.8255" font-family="Times New Roman,serif" font-size="8.00">use</text>
</g>
<!-- http://painters.orgPrado -->
<g id="node15" class="node"><title>http://painters.orgPrado</title>
<g id="a_node15"><a xlink:href="http://painters.orgPrado" xlink:title="Prado">
<polygon fill="#fdb266" stroke="black" points="533.482,-95.5623 493.144,-108 452.806,-95.5623 452.843,-75.4377 533.444,-75.4377 533.482,-95.5623"/>
<text text-anchor="middle" x="493.144" y="-86.3" font-family="Times New Roman,serif" font-size="14.00">Prado</text>
</a>
</g>
</g>
<!-- http://painters.orgAcquire&#45;&gt;http://painters.orgPrado -->
<g id="edge29" class="edge"><title>http://painters.orgAcquire&#45;&gt;http://painters.orgPrado</title>
<path fill="none" stroke="black" d="M493.144,-36.3034C493.144,-45.0105 493.144,-55.7005 493.144,-65.1713"/>
<polygon fill="black" stroke="black" points="489.644,-65.1754 493.144,-75.1755 496.644,-65.1755 489.644,-65.1754"/>
<text text-anchor="middle" x="506.134" y="-41.9034" font-family="Times New Roman,serif" font-size="8.00">assoc</text>
</g>
<!-- http://painters.orgSofia -->
<g id="node16" class="node"><title>http://painters.orgSofia</title>
<g id="a_node16"><a xlink:href="http://painters.orgSofia" xlink:title="Sofia">
<polygon fill="#fdb266" stroke="black" points="625.054,-95.5623 588.144,-108 551.233,-95.5623 551.268,-75.4377 625.02,-75.4377 625.054,-95.5623"/>
<text text-anchor="middle" x="588.144" y="-86.3" font-family="Times New Roman,serif" font-size="14.00">Sofia</text>
</a>
</g>
</g>
<!-- http://painters.orgAcquire&#45;&gt;http://painters.orgSofia -->
<g id="edge30" class="edge"><title>http://painters.orgAcquire&#45;&gt;http://painters.orgSofia</title>
<path fill="none" stroke="black" d="M516.627,-36.3034C530.186,-46.2946 547.289,-58.8969 561.37,-69.2719"/>
<polygon fill="black" stroke="black" points="559.561,-72.2865 569.688,-75.4008 563.713,-66.6511 559.561,-72.2865"/>
<text text-anchor="middle" x="530.371" y="-28.3944" font-family="Times New Roman,serif" font-size="8.00">assoc</text>
</g>
<!-- http://painters.orgDonate -->
<g id="node3" class="node"><title>http://painters.orgDonate</title>
<g id="a_node3"><a xlink:href="http://painters.orgDonate" xlink:title="Donate">
<polygon fill="#9fb1fc" stroke="#0000ff" points="1064.14,-36 1008.14,-36 1008.14,-0 1064.14,-0 1064.14,-36"/>
<text text-anchor="middle" x="1036.14" y="-14.3" font-family="Times New Roman,serif" font-size="14.00">Donate</text>
</a>
</g>
</g>
<!-- http://painters.orgMemories_Persistence -->
<g id="node9" class="node"><title>http://painters.orgMemories_Persistence</title>
<g id="a_node9"><a xlink:href="http://painters.orgMemories_Persistence" xlink:title="Memories_Persistence">
<ellipse fill="#fffc87" stroke="#808080" cx="976.144" cy="-90" rx="92.8835" ry="18"/>
<text text-anchor="middle" x="976.144" y="-86.3" font-family="Times New Roman,serif" font-size="14.00">Memories_Persistence</text>
</a>
</g>
</g>
<!-- http://painters.orgDonate&#45;&gt;http://painters.orgMemories_Persistence -->
<g id="edge18" class="edge"><title>http://painters.orgDonate&#45;&gt;http://painters.orgMemories_Persistence</title>
<path fill="none" stroke="black" d="M1021.31,-36.3034C1014.12,-44.6954 1005.35,-54.9295 997.453,-64.1387"/>
<polygon fill="black" stroke="black" points="994.655,-62.0253 990.804,-71.8957 999.97,-66.5809 994.655,-62.0253"/>
<text text-anchor="middle" x="1026.29" y="-48.5518" font-family="Times New Roman,serif" font-size="8.00">use</text>
</g>
<!-- http://painters.orgDonate&#45;&gt;http://painters.orgDali -->
<g id="edge28" class="edge"><title>http://painters.orgDonate&#45;&gt;http://painters.orgDali</title>
<path fill="none" stroke="black" d="M1054.75,-36.2436C1063.67,-45.8024 1073.43,-58.4734 1078.14,-72 1083.4,-87.1102 1083.51,-92.9278 1078.14,-108 1062.79,-151.094 1025.51,-190.079 1000.53,-212.658"/>
<polygon fill="black" stroke="black" points="998.079,-210.156 992.897,-219.397 1002.71,-215.404 998.079,-210.156"/>
<text text-anchor="middle" x="1069.4" y="-31.1351" font-family="Times New Roman,serif" font-size="8.00">assoc</text>
</g>
<!-- http://painters.orgLast_Supper&#45;&gt;http://painters.orgPaint -->
<g id="edge7" class="edge"><title>http://painters.orgLast_Supper&#45;&gt;http://painters.orgPaint</title>
<path fill="none" stroke="black" d="M418.966,-102.481C467.935,-115.923 548.285,-137.98 595.096,-150.83"/>
<polygon fill="black" stroke="black" points="594.264,-154.231 604.833,-153.503 596.117,-147.481 594.264,-154.231"/>
<text text-anchor="middle" x="429.637" y="-90.0391" font-family="Times New Roman,serif" font-size="8.00">gen</text>
</g>
<!-- http://painters.orgFresco -->
<g id="node11" class="node"><title>http://painters.orgFresco</title>
<g id="a_node11"><a xlink:href="http://painters.orgFresco" xlink:title="Fresco">
<ellipse fill="#fffc87" stroke="#808080" cx="208.144" cy="-162" rx="36.2938" ry="18"/>
<text text-anchor="middle" x="208.144" y="-158.3" font-family="Times New Roman,serif" font-size="14.00">Fresco</text>
</a>
</g>
</g>
<!-- http://painters.orgLast_Supper&#45;&gt;http://painters.orgFresco -->
<g id="edge1" class="edge"><title>http://painters.orgLast_Supper&#45;&gt;http://painters.orgFresco</title>
<path fill="none" stroke="black" d="M343.755,-104.83C315.148,-116.679 274.023,-133.713 244.572,-145.911"/>
<polygon fill="black" stroke="black" points="242.966,-142.788 235.067,-149.848 245.645,-149.255 242.966,-142.788"/>
<text text-anchor="middle" x="341.797" y="-117.801" font-family="Times New Roman,serif" font-size="8.00">der</text>
</g>
<!-- http://painters.orgLast_Supper&#45;&gt;http://painters.orgDa_Vinci -->
<g id="edge19" class="edge"><title>http://painters.orgLast_Supper&#45;&gt;http://painters.orgDa_Vinci</title>
<path fill="none" stroke="black" d="M406.26,-105.662C458.115,-131.773 566.316,-186.257 622.899,-214.749"/>
<polygon fill="black" stroke="black" points="621.344,-217.885 631.85,-219.256 624.493,-211.633 621.344,-217.885"/>
<text text-anchor="middle" x="418.801" y="-95.5323" font-family="Times New Roman,serif" font-size="8.00">att</text>
</g>
<!-- http://painters.orgMonalisa&#45;&gt;http://painters.orgPaint -->
<g id="edge8" class="edge"><title>http://painters.orgMonalisa&#45;&gt;http://painters.orgPaint</title>
<path fill="none" stroke="black" d="M674.387,-107.235C667.711,-115.732 659.39,-126.323 651.902,-135.854"/>
<polygon fill="black" stroke="black" points="649.024,-133.85 645.598,-143.876 654.528,-138.175 649.024,-133.85"/>
<text text-anchor="middle" x="679.968" y="-119.258" font-family="Times New Roman,serif" font-size="8.00">gen</text>
</g>
<!-- http://painters.orgOil -->
<g id="node10" class="node"><title>http://painters.orgOil</title>
<g id="a_node10"><a xlink:href="http://painters.orgOil" xlink:title="Oil">
<ellipse fill="#fffc87" stroke="#808080" cx="807.144" cy="-162" rx="27" ry="18"/>
<text text-anchor="middle" x="807.144" y="-158.3" font-family="Times New Roman,serif" font-size="14.00">Oil</text>
</a>
</g>
</g>
<!-- http://painters.orgMonalisa&#45;&gt;http://painters.orgOil -->
<g id="edge2" class="edge"><title>http://painters.orgMonalisa&#45;&gt;http://painters.orgOil</title>
<path fill="none" stroke="black" d="M711.427,-105.166C730.788,-116.459 757.95,-132.304 778.396,-144.23"/>
<polygon fill="black" stroke="black" points="776.864,-147.389 787.265,-149.404 780.391,-141.342 776.864,-147.389"/>
<text text-anchor="middle" x="724.451" y="-95.8238" font-family="Times New Roman,serif" font-size="8.00">der</text>
</g>
<!-- http://painters.orgMonalisa&#45;&gt;http://painters.orgDa_Vinci -->
<g id="edge20" class="edge"><title>http://painters.orgMonalisa&#45;&gt;http://painters.orgDa_Vinci</title>
<path fill="none" stroke="black" d="M683.766,-108.129C678.788,-133.376 669.462,-180.672 663.826,-209.255"/>
<polygon fill="black" stroke="black" points="660.364,-208.72 661.863,-219.208 667.232,-210.074 660.364,-208.72"/>
<text text-anchor="middle" x="695.06" y="-116.1" font-family="Times New Roman,serif" font-size="8.00">att</text>
</g>
<!-- http://painters.orgAnnunciation&#45;&gt;http://painters.orgPaint -->
<g id="edge9" class="edge"><title>http://painters.orgAnnunciation&#45;&gt;http://painters.orgPaint</title>
<path fill="none" stroke="black" d="M772.986,-104.663C743.008,-116.654 699.521,-134.049 668.816,-146.331"/>
<polygon fill="black" stroke="black" points="667.315,-143.162 659.33,-150.126 669.914,-149.661 667.315,-143.162"/>
<text text-anchor="middle" x="770.847" y="-117.61" font-family="Times New Roman,serif" font-size="8.00">gen</text>
</g>
<!-- http://painters.orgAnnunciation&#45;&gt;http://painters.orgOil -->
<g id="edge3" class="edge"><title>http://painters.orgAnnunciation&#45;&gt;http://painters.orgOil</title>
<path fill="none" stroke="black" d="M807.144,-108.303C807.144,-116.017 807.144,-125.288 807.144,-133.888"/>
<polygon fill="black" stroke="black" points="803.644,-133.896 807.144,-143.896 810.644,-133.896 803.644,-133.896"/>
<text text-anchor="middle" x="820.134" y="-113.903" font-family="Times New Roman,serif" font-size="8.00">der</text>
</g>
<!-- http://painters.orgAnnunciation&#45;&gt;http://painters.orgDa_Vinci -->
<g id="edge21" class="edge"><title>http://painters.orgAnnunciation&#45;&gt;http://painters.orgDa_Vinci</title>
<path fill="none" stroke="black" d="M790.166,-107.289C763.123,-133.236 710.3,-183.918 680.651,-212.365"/>
<polygon fill="black" stroke="black" points="678.085,-209.976 673.293,-219.425 682.932,-215.027 678.085,-209.976"/>
<text text-anchor="middle" x="793.748" y="-119.955" font-family="Times New Roman,serif" font-size="8.00">att</text>
</g>
<!-- http://painters.orgAdams_Creation&#45;&gt;http://painters.orgPaint -->
<g id="edge10" class="edge"><title>http://painters.orgAdams_Creation&#45;&gt;http://painters.orgPaint</title>
<path fill="none" stroke="black" d="M123.858,-102.631C133.559,-104.591 143.637,-106.48 153.144,-108 316.814,-134.167 514.018,-151.574 594.842,-158.109"/>
<polygon fill="black" stroke="black" points="594.764,-161.614 605.012,-158.923 595.323,-154.636 594.764,-161.614"/>
<text text-anchor="middle" x="133.766" y="-89.4689" font-family="Times New Roman,serif" font-size="8.00">gen</text>
</g>
<!-- http://painters.orgAdams_Creation&#45;&gt;http://painters.orgFresco -->
<g id="edge4" class="edge"><title>http://painters.orgAdams_Creation&#45;&gt;http://painters.orgFresco</title>
<path fill="none" stroke="black" d="M102.326,-106.535C123.827,-117.602 152.724,-132.475 174.887,-143.883"/>
<polygon fill="black" stroke="black" points="173.439,-147.074 183.932,-148.538 176.643,-140.85 173.439,-147.074"/>
<text text-anchor="middle" x="114.94" y="-96.5174" font-family="Times New Roman,serif" font-size="8.00">der</text>
</g>
<!-- http://painters.orgAdams_Creation&#45;&gt;http://painters.orgMichelangelo -->
<g id="edge22" class="edge"><title>http://painters.orgAdams_Creation&#45;&gt;http://painters.orgMichelangelo</title>
<path fill="none" stroke="black" d="M86.2486,-107.743C103.083,-126.977 132.787,-158.628 163.144,-180 183.047,-194.013 207.219,-206.184 227.739,-215.316"/>
<polygon fill="black" stroke="black" points="226.615,-218.644 237.181,-219.421 229.406,-212.224 226.615,-218.644"/>
<text text-anchor="middle" x="100.945" y="-102.84" font-family="Times New Roman,serif" font-size="8.00">att</text>
</g>
<!-- http://painters.orgLast_Judgement&#45;&gt;http://painters.orgPaint -->
<g id="edge11" class="edge"><title>http://painters.orgLast_Judgement&#45;&gt;http://painters.orgPaint</title>
<path fill="none" stroke="black" d="M282.835,-102.444C291.911,-104.38 301.295,-106.309 310.144,-108 412.773,-127.617 534.648,-146.476 594.775,-155.488"/>
<polygon fill="black" stroke="black" points="594.513,-158.988 604.92,-157.003 595.547,-152.064 594.513,-158.988"/>
<text text-anchor="middle" x="292.871" y="-89.3963" font-family="Times New Roman,serif" font-size="8.00">gen</text>
</g>
<!-- http://painters.orgLast_Judgement&#45;&gt;http://painters.orgFresco -->
<g id="edge5" class="edge"><title>http://painters.orgLast_Judgement&#45;&gt;http://painters.orgFresco</title>
<path fill="none" stroke="black" d="M226.334,-107.945C223.592,-115.941 220.257,-125.669 217.195,-134.6"/>
<polygon fill="black" stroke="black" points="213.832,-133.616 213.9,-144.211 220.454,-135.887 213.832,-133.616"/>
<text text-anchor="middle" x="236.19" y="-117.353" font-family="Times New Roman,serif" font-size="8.00">der</text>
</g>
<!-- http://painters.orgLast_Judgement&#45;&gt;http://painters.orgMichelangelo -->
<g id="edge23" class="edge"><title>http://painters.orgLast_Judgement&#45;&gt;http://painters.orgMichelangelo</title>
<path fill="none" stroke="black" d="M239.69,-107.929C244.061,-118.21 249.418,-131.685 253.144,-144 259.729,-165.768 264.916,-191.194 268.195,-209.283"/>
<polygon fill="black" stroke="black" points="264.768,-210.005 269.943,-219.25 271.663,-208.796 264.768,-210.005"/>
<text text-anchor="middle" x="254.573" y="-107.896" font-family="Times New Roman,serif" font-size="8.00">att</text>
</g>
<!-- http://painters.orgMemories_Persistence&#45;&gt;http://painters.orgPaint -->
<g id="edge12" class="edge"><title>http://painters.orgMemories_Persistence&#45;&gt;http://painters.orgPaint</title>
<path fill="none" stroke="black" d="M914.643,-103.515C843.36,-118.02 728.167,-141.46 669.326,-153.434"/>
<polygon fill="black" stroke="black" points="668.46,-150.038 659.359,-155.462 669.856,-156.898 668.46,-150.038"/>
<text text-anchor="middle" x="909.884" y="-115.84" font-family="Times New Roman,serif" font-size="8.00">gen</text>
</g>
<!-- http://painters.orgMemories_Persistence&#45;&gt;http://painters.orgOil -->
<g id="edge6" class="edge"><title>http://painters.orgMemories_Persistence&#45;&gt;http://painters.orgOil</title>
<path fill="none" stroke="black" d="M938.637,-106.535C908.713,-118.93 867.261,-136.099 838.947,-147.827"/>
<polygon fill="black" stroke="black" points="837.42,-144.671 829.52,-151.732 840.098,-151.138 837.42,-144.671"/>
<text text-anchor="middle" x="936.679" y="-119.507" font-family="Times New Roman,serif" font-size="8.00">der</text>
</g>
<!-- http://painters.orgMemories_Persistence&#45;&gt;http://painters.orgDali -->
<g id="edge24" class="edge"><title>http://painters.orgMemories_Persistence&#45;&gt;http://painters.orgDali</title>
<path fill="none" stroke="black" d="M976.144,-108.129C976.144,-133.265 976.144,-180.256 976.144,-208.876"/>
<polygon fill="black" stroke="black" points="972.644,-209.208 976.144,-219.208 979.644,-209.208 972.644,-209.208"/>
<text text-anchor="middle" x="989.134" y="-113.729" font-family="Times New Roman,serif" font-size="8.00">att</text>
</g>
</g>
</svg>
